STARTFONT 2.3
FONT -FontForge-Monofett-Book-R-Normal--20-200-72-72-P-114-ISO10646-1
SIZE 20 72 72  2
FONTBOUNDINGBOX 13 23 0 -3
COMMENT "Generated by fontforge, http://fontforge.sourceforge.net"
COMMENT "Copyright (c) 2011 by vernon adams. All rights reserved."
STARTPROPERTIES 41
FOUNDRY "FontForge"
FAMILY_NAME "Monofett"
WEIGHT_NAME "Book"
SLANT "R"
SETWIDTH_NAME "Normal"
ADD_STYLE_NAME ""
PIXEL_SIZE 20
POINT_SIZE 200
RESOLUTION_X 72
RESOLUTION_Y 72
SPACING "P"
AVERAGE_WIDTH 114
CHARSET_REGISTRY "ISO10646"
CHARSET_ENCODING "1"
FONTNAME_REGISTRY ""
CHARSET_COLLECTIONS "ISO8859-2 ISO8859-9 ISO8859-4 ISO10646-1"
BITS_PER_PIXEL 2
FONT_NAME "Monofett"
FACE_NAME "Monofett"
COPYRIGHT "Copyright (c) 2011 by vernon adams. All rights reserved."
FONT_VERSION "1.000"
FONT_ASCENT 16
FONT_DESCENT 4
UNDERLINE_POSITION -3
UNDERLINE_THICKNESS 1
X_HEIGHT 13
CAP_HEIGHT 13
RAW_ASCENT 799
RAW_DESCENT 200
NORM_SPACE 3
RELATIVE_WEIGHT 40
RELATIVE_SETWIDTH 50
SUPERSCRIPT_X 0
SUPERSCRIPT_Y 9
SUPERSCRIPT_SIZE 12
SUBSCRIPT_X 0
SUBSCRIPT_Y 2
SUBSCRIPT_SIZE 12
FIGURE_WIDTH 12
AVG_LOWERCASE_WIDTH 120
AVG_UPPERCASE_WIDTH 120
ENDPROPERTIES
CHARS 409
STARTCHAR uni000D
ENCODING 13
SWIDTH 144 0
DWIDTH 3 0
BBX 1 1 0 0
BITMAP
00
ENDCHAR
STARTCHAR space
ENCODING 32
SWIDTH 144 0
DWIDTH 3 0
BBX 1 1 0 0
BITMAP
00
ENDCHAR
STARTCHAR exclam
ENCODING 33
SWIDTH 424 0
DWIDTH 8 0
BBX 9 14 0 0
BITMAP
015000
1EB900
7E3F00
FE3F40
FE7F80
FF7F80
FF7F80
FF7F80
FFBF80
FF7F80
FFFF80
BFFF40
7FFE00
0BE400
ENDCHAR
STARTCHAR quotedbl
ENCODING 34
SWIDTH 424 0
DWIDTH 8 0
BBX 9 14 0 0
BITMAP
015000
1EA900
7D5F00
FD5F40
FFFF80
FFFF80
FFFF80
FFFF80
FFFF80
FFFF80
FFFF80
BFFF40
7FFE00
0BE400
ENDCHAR
STARTCHAR numbersign
ENCODING 35
SWIDTH 482 0
DWIDTH 10 0
BBX 10 14 0 0
BITMAP
015400
1FFF40
7FABD0
FD57E0
FC03E0
FD9BE0
FD9BE0
F807E0
FCCFE0
FFEFE0
FFFFE0
BFFFD0
7FFF80
0BFE00
ENDCHAR
STARTCHAR dollar
ENCODING 36
SWIDTH 578 0
DWIDTH 12 0
BBX 12 14 0 0
BITMAP
015540
1FEFE4
7E45FC
FC957D
FCEBFE
FD56FE
FF957E
FEEA7E
FC557E
FE56FE
FFEBFE
BFFFFD
7FFFF8
0BFFD0
ENDCHAR
STARTCHAR percent
ENCODING 37
SWIDTH 578 0
DWIDTH 12 0
BBX 12 14 0 0
BITMAP
015540
1FFFE4
7476FC
E733FD
F127FE
FEDBFE
FFC81E
FF99CE
FF5C0E
FFFFFE
FFFFFE
BFFFFD
7FFFF8
0BFFD0
ENDCHAR
STARTCHAR ampersand
ENCODING 38
SWIDTH 578 0
DWIDTH 12 0
BBX 12 14 0 0
BITMAP
015540
1FAAE4
7E16FC
FE7FFD
FE7E3E
FF402E
FE7E3E
FE7E3E
FE297E
FF95FE
FFFFFE
BFFFFD
7FFFF8
0BFFD0
ENDCHAR
STARTCHAR quotesingle
ENCODING 39
SWIDTH 424 0
DWIDTH 8 0
BBX 9 14 0 0
BITMAP
015000
1FB900
7E7F00
FE7F40
FFFF80
FFFF80
FFFF80
FFFF80
FFFF80
FFFF80
FFFF80
BFFF40
7FFE00
0BE400
ENDCHAR
STARTCHAR parenleft
ENCODING 40
SWIDTH 483 0
DWIDTH 10 0
BBX 10 14 0 0
BITMAP
015400
1F9F40
7D5FD0
FDBFE0
FDBFE0
FDBFE0
FDBFE0
FDBFE0
FDBFE0
FDAFE0
FE5FE0
BFFFD0
7FFFC0
0BFE00
ENDCHAR
STARTCHAR parenright
ENCODING 41
SWIDTH 483 0
DWIDTH 10 0
BBX 10 14 0 0
BITMAP
015400
1E6F40
7E4BD0
FFDBE0
FFDBE0
FFDBE0
FFDBE0
FFDBE0
FFDBE0
FF9BE0
FE5FE0
BFFFD0
7FFFC0
0BFE00
ENDCHAR
STARTCHAR asterisk
ENCODING 42
SWIDTH 428 0
DWIDTH 9 0
BBX 9 14 0 0
BITMAP
015000
1EE900
7D4F00
F50740
F90B80
FD8F80
FFFF80
FFFF80
FFFF80
FFFF80
FFFF80
BFFF40
7FFE00
0BF400
ENDCHAR
STARTCHAR plus
ENCODING 43
SWIDTH 428 0
DWIDTH 9 0
BBX 9 14 0 0
BITMAP
015000
1FB900
7F3F00
F51B40
F92B80
FF3F80
FFBF80
FFFF80
FFFF80
FFFF80
FFFF80
BFFF40
7FFE00
0BF400
ENDCHAR
STARTCHAR comma
ENCODING 44
SWIDTH 428 0
DWIDTH 9 0
BBX 9 14 0 0
BITMAP
015000
1FF900
7FFF00
FFFF40
FFFF80
FFFF80
FFFF80
FFFF80
FE7F80
FE3F80
FF7F80
BFFF40
7FFE00
0BF400
ENDCHAR
STARTCHAR hyphen
ENCODING 45
SWIDTH 428 0
DWIDTH 9 0
BBX 9 14 0 0
BITMAP
015000
1FF900
7FFF00
FFFF40
F40F80
FFFF80
FFFF80
FFFF80
FFFF80
FFFF80
FFFF80
BFFF40
7FFE00
0BF400
ENDCHAR
STARTCHAR period
ENCODING 46
SWIDTH 428 0
DWIDTH 9 0
BBX 9 14 0 0
BITMAP
015000
1FF900
7FFF00
FFFF40
FFFF80
FFFF80
FFFF80
FFFF80
FE7F80
FE7F80
FFFF80
BFFF40
7FFE00
0BF400
ENDCHAR
STARTCHAR slash
ENCODING 47
SWIDTH 428 0
DWIDTH 9 0
BBX 9 14 0 0
BITMAP
015000
1FF900
7F6F00
FF2F40
FF3F80
FE3F80
FE7F80
FD7F80
FDBF80
FDBF80
FFFF80
BFFF40
7FFE00
0BF400
ENDCHAR
STARTCHAR zero
ENCODING 48
SWIDTH 578 0
DWIDTH 12 0
BBX 12 14 0 0
BITMAP
015540
1FAAA4
7D553C
FCFF6D
FCFF6E
FCFF6E
FCFF6E
FCFF6E
FD6A3E
FF55BE
FFFFFE
BFFFFD
7FFFF8
0BFFD0
ENDCHAR
STARTCHAR one
ENCODING 49
SWIDTH 578 0
DWIDTH 12 0
BBX 12 14 0 0
BITMAP
015540
1FEBE4
7F57FC
FFE7FD
FFE7FE
FFE7FE
FFE7FE
FFE7FE
FFE7FE
FFEBFE
FFFFFE
BFFFFD
7FFFF8
0BFFD0
ENDCHAR
STARTCHAR two
ENCODING 50
SWIDTH 578 0
DWIDTH 12 0
BBX 12 14 0 0
BITMAP
015540
1FAAE4
7D553C
FEFF3D
FFFF3E
FE547E
FDBFFE
FCFFFE
FC6ABE
FE55BE
FFFFFE
BFFFFD
7FFFF8
0BFFD0
ENDCHAR
STARTCHAR three
ENCODING 51
SWIDTH 578 0
DWIDTH 12 0
BBX 12 14 0 0
BITMAP
015540
1EAAE4
7C557C
FEFF3D
FFFE3E
FF407E
FFFE3E
FEFF3E
FCA97E
FE55BE
FFFFFE
BFFFFD
7FFFF8
0BFFD0
ENDCHAR
STARTCHAR four
ENCODING 52
SWIDTH 578 0
DWIDTH 12 0
BBX 12 14 0 0
BITMAP
015540
1EBEE4
7E7CFC
FE7CFD
FE7CFE
FE7CFE
FE68AE
FF546E
FFFCFE
FFFDFE
FFFFFE
BFFFFD
7FFFF8
0BFFD0
ENDCHAR
STARTCHAR five
ENCODING 53
SWIDTH 578 0
DWIDTH 12 0
BBX 12 14 0 0
BITMAP
015540
1EAAA4
7D55BC
FDBFFD
FDAAFE
FD553E
FFFF3E
FFFF3E
FD6A3E
FF55BE
FFFFFE
BFFFFD
7FFFF8
0BFFD0
ENDCHAR
STARTCHAR six
ENCODING 54
SWIDTH 578 0
DWIDTH 12 0
BBX 12 14 0 0
BITMAP
015540
1FAAA4
7D55BC
FDBFFD
FD6ABE
FD552E
FDBF6E
FDBF6E
FD6A2E
FF55BE
FFFFFE
BFFFFD
7FFFF8
0BFFD0
ENDCHAR
STARTCHAR seven
ENCODING 55
SWIDTH 578 0
DWIDTH 12 0
BBX 12 14 0 0
BITMAP
015540
1FAAE4
7F94BC
FFF8FD
FFF5FE
FFF2FE
FFE3FE
FFD7FE
FFCFFE
FF9FFE
FFFFFE
BFFFFD
7FFFF8
0BFFD0
ENDCHAR
STARTCHAR eight
ENCODING 56
SWIDTH 578 0
DWIDTH 12 0
BBX 12 14 0 0
BITMAP
015540
1FAAA4
7D553C
FCFF6D
FCBF2E
FD003E
FCFF2E
FCFF6E
FC6A3E
FE55BE
FFFFFE
BFFFFD
7FFFF8
0BFFD0
ENDCHAR
STARTCHAR nine
ENCODING 57
SWIDTH 578 0
DWIDTH 12 0
BBX 12 14 0 0
BITMAP
015540
1EAAA4
7C553C
FCFF3D
FCFF3E
FC553E
FFAA3E
FFFF3E
FE553E
FF55BE
FFFFFE
BFFFFD
7FFFF8
0BFFD0
ENDCHAR
STARTCHAR colon
ENCODING 58
SWIDTH 428 0
DWIDTH 9 0
BBX 9 14 0 0
BITMAP
015000
1FF900
7FFF00
FFFF40
FFFF80
FEBF80
FE7F80
FFFF80
FE7F80
FE7F80
FFFF80
BFFF40
7FFE00
0BF400
ENDCHAR
STARTCHAR semicolon
ENCODING 59
SWIDTH 428 0
DWIDTH 9 0
BBX 9 14 0 0
BITMAP
015000
1FF900
7FFF00
FFFF40
FFFF80
FFBF80
FF7F80
FFFF80
FE7F80
FE3F80
FF7F80
BFFF40
7FFE00
0BF400
ENDCHAR
STARTCHAR less
ENCODING 60
SWIDTH 482 0
DWIDTH 10 0
BBX 10 15 0 1
BITMAP
005000
1BFE00
7FFFC0
BFFFD0
FFEFE0
FF9FE0
FF7FE0
FDFFE0
F9FFE0
FEBFE0
FFAFE0
FFDFE0
BFFFD0
7FFF80
0BFD00
ENDCHAR
STARTCHAR equal
ENCODING 61
SWIDTH 482 0
DWIDTH 10 0
BBX 10 15 0 1
BITMAP
005000
1BFE00
7FFFC0
BFFFD0
FFFFE0
FFFFE0
FEABE0
FEABE0
FEABE0
FFFFE0
FFFFE0
FFFFE0
BFFFD0
7FFF80
0BFD00
ENDCHAR
STARTCHAR greater
ENCODING 62
SWIDTH 482 0
DWIDTH 10 0
BBX 10 15 0 1
BITMAP
005000
1BFE00
7FFFC0
BFFFD0
FEFFE0
FF7FE0
FF9FE0
FFE7E0
FFF7E0
FFDFE0
FF6FE0
FEBFE0
BFFFD0
7FFF80
0BFD00
ENDCHAR
STARTCHAR question
ENCODING 63
SWIDTH 578 0
DWIDTH 12 0
BBX 12 14 0 0
BITMAP
015540
1FAAE4
7F5A7C
FFFF7D
FFFF7E
FFF57E
FFE6FE
FFEBFE
FFEBFE
FFEBFE
FFFFFE
BFFFFD
7FFFF8
0BFFD0
ENDCHAR
STARTCHAR at
ENCODING 64
SWIDTH 578 0
DWIDTH 12 0
BBX 12 14 0 0
BITMAP
015540
1E95A4
78AA6C
F396CD
E7FCDE
E7E8DA
E768DA
E768DA
F7A95E
F5AFFE
FE5BFE
BFFFFD
7FFFF8
0BFFD0
ENDCHAR
STARTCHAR A
ENCODING 65
SWIDTH 578 0
DWIDTH 12 0
BBX 12 14 0 0
BITMAP
015540
1FAAE4
7E157C
FE7E7D
FDBE7E
FD6A3E
FD553E
FCBF3E
FCFF2E
FDFFBE
FFFFFE
BFFFFD
7FFFF8
0BFFD0
ENDCHAR
STARTCHAR B
ENCODING 66
SWIDTH 578 0
DWIDTH 12 0
BBX 12 14 0 0
BITMAP
015540
1EAAE4
7C557C
FCFE3D
FCFE7E
FC00BE
FCFE7E
FCFE3E
FCA97E
FD55FE
FFFFFE
BFFFFD
7FFFF8
0BFFD0
ENDCHAR
STARTCHAR C
ENCODING 67
SWIDTH 578 0
DWIDTH 12 0
BBX 12 14 0 0
BITMAP
015540
1FAAE4
7C55FC
FCFFFD
FCFFFE
FCFFFE
FCFFFE
FCFFFE
FC69FE
FE55FE
FFFFFE
BFFFFD
7FFFF8
0BFFD0
ENDCHAR
STARTCHAR D
ENCODING 68
SWIDTH 578 0
DWIDTH 12 0
BBX 12 14 0 0
BITMAP
015540
1EAAA4
7D552C
FDBF6D
FDBF6E
FDBF6E
FDBF6E
FDBF6E
FD6A2E
FE55BE
FFFFFE
BFFFFD
7FFFF8
0BFFD0
ENDCHAR
STARTCHAR E
ENCODING 69
SWIDTH 578 0
DWIDTH 12 0
BBX 12 14 0 0
BITMAP
015540
1FAAA4
7F15BC
FF3FFD
FF3FFE
FF00BE
FF3FFE
FF3FFE
FF2ABE
FF55BE
FFFFFE
BFFFFD
7FFFF8
0BFFD0
ENDCHAR
STARTCHAR F
ENCODING 70
SWIDTH 578 0
DWIDTH 12 0
BBX 12 14 0 0
BITMAP
015540
1FAAA4
7F15BC
FF3FFD
FF3FFE
FF00FE
FF3FFE
FF3FFE
FF3FFE
FF7FFE
FFFFFE
BFFFFD
7FFFF8
0BFFD0
ENDCHAR
STARTCHAR G
ENCODING 71
SWIDTH 578 0
DWIDTH 12 0
BBX 12 14 0 0
BITMAP
015540
1FAAA4
7D55BC
FDBFFD
FDBFFE
FDB97E
FDBA2E
FDBF6E
FD6A2E
FF95BE
FFFFFE
BFFFFD
7FFFF8
0BFFD0
ENDCHAR
STARTCHAR H
ENCODING 72
SWIDTH 578 0
DWIDTH 12 0
BBX 12 14 0 0
BITMAP
015540
1EFFA4
7DBF6C
FDBF6D
FDBF6E
FD002E
FDBF6E
FDBF6E
FDBF6E
FEFFAE
FFFFFE
BFFFFD
7FFFF8
0BFFD0
ENDCHAR
STARTCHAR I
ENCODING 73
SWIDTH 578 0
DWIDTH 12 0
BBX 12 14 0 0
BITMAP
015540
1EAAA4
7E517C
FFE3FD
FFE3FE
FFE3FE
FFE3FE
FFE3FE
FE92BE
FE557E
FFFFFE
BFFFFD
7FFFF8
0BFFD0
ENDCHAR
STARTCHAR J
ENCODING 74
SWIDTH 578 0
DWIDTH 12 0
BBX 12 14 0 0
BITMAP
015540
1FFAE4
7FF9FC
FFF9FD
FFF9FE
FFF9FE
FFF9FE
FFF9FE
FFA5FE
FF9BFE
FFFFFE
BFFFFD
7FFFF8
0BFFD0
ENDCHAR
STARTCHAR K
ENCODING 75
SWIDTH 578 0
DWIDTH 12 0
BBX 12 14 0 0
BITMAP
015540
1FBFA4
7F3E2C
FF38BD
FF22FE
FF07FE
FF22FE
FF38BE
FF3E2E
FF7FAE
FFFFFE
BFFFFD
7FFFF8
0BFFD0
ENDCHAR
STARTCHAR L
ENCODING 76
SWIDTH 578 0
DWIDTH 12 0
BBX 12 14 0 0
BITMAP
015540
1FAFE4
7F6FFC
FF6FFD
FF6FFE
FF6FFE
FF6FFE
FF6FFE
FF5ABE
FF95BE
FFFFFE
BFFFFD
7FFFF8
0BFFD0
ENDCHAR
STARTCHAR M
ENCODING 77
SWIDTH 578 0
DWIDTH 12 0
BBX 12 14 0 0
BITMAP
015540
1EAAA4
79555C
F9E79D
F9E79E
F9E79E
F9EB9E
F9FF9E
F9FF9E
FAFFAE
FFFFFE
BFFFFD
7FFFF8
0BFFD0
ENDCHAR
STARTCHAR N
ENCODING 78
SWIDTH 578 0
DWIDTH 12 0
BBX 12 14 0 0
BITMAP
015540
1EAAA4
7C553C
FCBF3D
FCBF3E
FCBF3E
FCBF3E
FCBF3E
FCBF3E
FEFF7E
FFFFFE
BFFFFD
7FFFF8
0BFFD0
ENDCHAR
STARTCHAR O
ENCODING 79
SWIDTH 578 0
DWIDTH 12 0
BBX 12 14 0 0
BITMAP
015540
1FAAA4
7D552C
FDBF6D
FDBF6E
FDBF6E
FDBF6E
FDBF6E
FD6A2E
FF55BE
FFFFFE
BFFFFD
7FFFF8
0BFFD0
ENDCHAR
STARTCHAR P
ENCODING 80
SWIDTH 578 0
DWIDTH 12 0
BBX 12 14 0 0
BITMAP
015540
1FAAA4
7E153C
FE7F3D
FE7F3E
FE6A3E
FE15BE
FE7FFE
FE7FFE
FEBFFE
FFFFFE
BFFFFD
7FFFF8
0BFFD0
ENDCHAR
STARTCHAR Q
ENCODING 81
SWIDTH 578 0
DWIDTH 12 0
BBX 12 14 0 0
BITMAP
015540
1FAAA4
7D552C
FDBF6D
FDBF6E
FDBF6E
FDBF6E
FDBB6E
FD612E
FF54BE
FFFDFE
BFFFFD
7FFFF8
0BFFD0
ENDCHAR
STARTCHAR R
ENCODING 82
SWIDTH 578 0
DWIDTH 12 0
BBX 12 14 0 0
BITMAP
015540
1EAAE4
7D557C
FDBE7D
FDBE7E
FD15FE
FD697E
FDBE7E
FDBE7E
FEBFBE
FFFFFE
BFFFFD
7FFFF8
0BFFD0
ENDCHAR
STARTCHAR S
ENCODING 83
SWIDTH 578 0
DWIDTH 12 0
BBX 12 14 0 0
BITMAP
015540
1FAAA4
7E55BC
FDBFFD
FD7FFE
FE007E
FFFF3E
FFFF3E
FF693E
FF55BE
FFFFFE
BFFFFD
7FFFF8
0BFFD0
ENDCHAR
STARTCHAR T
ENCODING 84
SWIDTH 578 0
DWIDTH 12 0
BBX 12 14 0 0
BITMAP
015540
1EAAA4
7E517C
FFE3FD
FFE3FE
FFE3FE
FFE3FE
FFE3FE
FFE3FE
FFFBFE
FFFFFE
BFFFFD
7FFFF8
0BFFD0
ENDCHAR
STARTCHAR U
ENCODING 85
SWIDTH 578 0
DWIDTH 12 0
BBX 12 14 0 0
BITMAP
015540
1EFFA4
7CFF6C
FCFF6D
FCFF6E
FCFF6E
FCFF6E
FCFF6E
FD6A3E
FF55BE
FFFFFE
BFFFFD
7FFFF8
0BFFD0
ENDCHAR
STARTCHAR V
ENCODING 86
SWIDTH 578 0
DWIDTH 12 0
BBX 12 14 0 0
BITMAP
015540
1EFFA4
7DBF3C
FD7E7D
FE3D7E
FF3CBE
FF6CFE
FF99FE
FFC6FE
FFE7FE
FFFFFE
BFFFFD
7FFFF8
0BFFD0
ENDCHAR
STARTCHAR W
ENCODING 87
SWIDTH 578 0
DWIDTH 12 0
BBX 12 14 0 0
BITMAP
015540
1BFFD4
76D78C
F6D79D
F5C39E
F9C75E
F9966E
F9956E
FC692E
FE7EBE
FFFFFE
BFFFFD
7FFFF8
0BFFD0
ENDCHAR
STARTCHAR X
ENCODING 88
SWIDTH 578 0
DWIDTH 12 0
BBX 12 14 0 0
BITMAP
015540
1EFFA4
7E7E3C
FF6DBD
FF89FE
FFD2FE
FFC5FE
FF6CBE
FE7E3E
FEBFBE
FFFFFE
BFFFFD
7FFFF8
0BFFD0
ENDCHAR
STARTCHAR Y
ENCODING 89
SWIDTH 578 0
DWIDTH 12 0
BBX 12 14 0 0
BITMAP
015540
1EBFA4
7E3E7C
FF2DBD
FF98FE
FFC5FE
FFD3FE
FFE7FE
FFE7FE
FFEBFE
FFFFFE
BFFFFD
7FFFF8
0BFFD0
ENDCHAR
STARTCHAR Z
ENCODING 90
SWIDTH 578 0
DWIDTH 12 0
BBX 12 14 0 0
BITMAP
015540
1FAAE4
7F54BC
FFF9FD
FFF2FE
FFD7FE
FFCFFE
FF5FFE
FF1ABE
FF55BE
FFFFFE
BFFFFD
7FFFF8
0BFFD0
ENDCHAR
STARTCHAR bracketleft
ENCODING 91
SWIDTH 484 0
DWIDTH 10 0
BBX 10 14 0 0
BITMAP
015400
1F5F40
7F2FD0
FF3FE0
FF3FE0
FF3FE0
FF3FE0
FF3FE0
FF3FE0
FF2FE0
FFAFE0
BFFFD0
7FFFC0
0BFE00
ENDCHAR
STARTCHAR backslash
ENCODING 92
SWIDTH 516 0
DWIDTH 10 0
BBX 11 14 0 0
BITMAP
015400
1FBF80
7F6FE0
FF5FF4
FF9FF4
FF8FF4
FFCFF4
FFCBF4
FFDBF4
FFEBF4
FFFFF4
BFFFF0
7FFFE0
0BFE40
ENDCHAR
STARTCHAR bracketright
ENCODING 93
SWIDTH 484 0
DWIDTH 10 0
BBX 10 14 0 0
BITMAP
015400
1F6F40
7F5FD0
FF9FE0
FF9FE0
FF9FE0
FF9FE0
FF9FE0
FF9FE0
FF5FE0
FF6FE0
BFFFD0
7FFFC0
0BFE00
ENDCHAR
STARTCHAR asciicircum
ENCODING 94
SWIDTH 355 0
DWIDTH 7 0
BBX 7 8 0 4
BITMAP
0B80
2FE0
3CF4
BAB8
FBBC
FFFC
BFF8
0010
ENDCHAR
STARTCHAR underscore
ENCODING 95
SWIDTH 428 0
DWIDTH 9 0
BBX 9 14 0 0
BITMAP
015000
1FF900
7FFF00
FFFF40
FFFF80
FFFF80
FFFF80
FFFF80
FFFF80
FAAB80
F55B80
BFFF40
7FFE00
0BF400
ENDCHAR
STARTCHAR grave
ENCODING 96
SWIDTH 308 0
DWIDTH 6 0
BBX 6 7 0 0
BITMAP
1A40
BFD0
F6E0
B9E0
3DF0
1FF0
0A90
ENDCHAR
STARTCHAR a
ENCODING 97
SWIDTH 578 0
DWIDTH 12 0
BBX 12 14 0 0
BITMAP
015540
1EAAE4
7E55BC
FFFEBD
FFFEBE
FE55BE
FCA9BE
FCFEBE
FC69BE
FE56BE
FFFFFE
BFFFFD
7FFFF8
0BFFD0
ENDCHAR
STARTCHAR b
ENCODING 98
SWIDTH 578 0
DWIDTH 12 0
BBX 12 14 0 0
BITMAP
015540
1EAAE4
7C557C
FCFE3D
FCFE7E
FC00BE
FCFE7E
FCFE3E
FCA97E
FD55FE
FFFFFE
BFFFFD
7FFFF8
0BFFD0
ENDCHAR
STARTCHAR c
ENCODING 99
SWIDTH 578 0
DWIDTH 12 0
BBX 12 14 0 0
BITMAP
015540
1FAAE4
7C55FC
FCFFFD
FCFFFE
FCFFFE
FCFFFE
FCFFFE
FC69FE
FE55FE
FFFFFE
BFFFFD
7FFFF8
0BFFD0
ENDCHAR
STARTCHAR d
ENCODING 100
SWIDTH 578 0
DWIDTH 12 0
BBX 12 14 0 0
BITMAP
015540
1EAAA4
7D552C
FDBF6D
FDBF6E
FDBF6E
FDBF6E
FDBF6E
FD6A2E
FE55BE
FFFFFE
BFFFFD
7FFFF8
0BFFD0
ENDCHAR
STARTCHAR e
ENCODING 101
SWIDTH 578 0
DWIDTH 12 0
BBX 12 14 0 0
BITMAP
015540
1EAAE4
7C55BC
FCFE7D
FCA97E
FC55BE
FCFFFE
FCFFFE
FD14FE
FFAAFE
FFFFFE
BFFFFD
7FFFF8
0BFFD0
ENDCHAR
STARTCHAR f
ENCODING 102
SWIDTH 578 0
DWIDTH 12 0
BBX 12 14 0 0
BITMAP
015540
1FAAA4
7F15BC
FF3FFD
FF3FFE
FF00FE
FF3FFE
FF3FFE
FF3FFE
FF7FFE
FFFFFE
BFFFFD
7FFFF8
0BFFD0
ENDCHAR
STARTCHAR g
ENCODING 103
SWIDTH 578 0
DWIDTH 12 0
BBX 12 14 0 0
BITMAP
015540
1FAAA4
7D55BC
FDBFFD
FDBFFE
FDB97E
FDBA2E
FDBF6E
FD6A2E
FF95BE
FFFFFE
BFFFFD
7FFFF8
0BFFD0
ENDCHAR
STARTCHAR h
ENCODING 104
SWIDTH 578 0
DWIDTH 12 0
BBX 12 14 0 0
BITMAP
015540
1EFFA4
7DBF6C
FDBF6D
FDBF6E
FD002E
FDBF6E
FDBF6E
FDBF6E
FEFFAE
FFFFFE
BFFFFD
7FFFF8
0BFFD0
ENDCHAR
STARTCHAR i
ENCODING 105
SWIDTH 578 0
DWIDTH 12 0
BBX 12 14 0 0
BITMAP
015540
1EAAA4
7E517C
FFE3FD
FFE3FE
FFE3FE
FFE3FE
FFE3FE
FE92BE
FE557E
FFFFFE
BFFFFD
7FFFF8
0BFFD0
ENDCHAR
STARTCHAR j
ENCODING 106
SWIDTH 578 0
DWIDTH 12 0
BBX 12 14 0 0
BITMAP
015540
1FFAE4
7FF9FC
FFF9FD
FFF9FE
FFF9FE
FFF9FE
FFF9FE
FFA5FE
FF9BFE
FFFFFE
BFFFFD
7FFFF8
0BFFD0
ENDCHAR
STARTCHAR k
ENCODING 107
SWIDTH 578 0
DWIDTH 12 0
BBX 12 14 0 0
BITMAP
015540
1FBFA4
7F3E2C
FF38BD
FF22FE
FF07FE
FF22FE
FF38BE
FF3E2E
FF7FAE
FFFFFE
BFFFFD
7FFFF8
0BFFD0
ENDCHAR
STARTCHAR l
ENCODING 108
SWIDTH 578 0
DWIDTH 12 0
BBX 12 14 0 0
BITMAP
015540
1FAFE4
7F6FFC
FF6FFD
FF6FFE
FF6FFE
FF6FFE
FF6FFE
FF5ABE
FF95BE
FFFFFE
BFFFFD
7FFFF8
0BFFD0
ENDCHAR
STARTCHAR m
ENCODING 109
SWIDTH 578 0
DWIDTH 12 0
BBX 12 14 0 0
BITMAP
015540
1EAAA4
79555C
F9E79D
F9E79E
F9E79E
F9EB9E
F9FF9E
F9FF9E
FAFFAE
FFFFFE
BFFFFD
7FFFF8
0BFFD0
ENDCHAR
STARTCHAR n
ENCODING 110
SWIDTH 578 0
DWIDTH 12 0
BBX 12 14 0 0
BITMAP
015540
1EAAA4
7C553C
FCBF3D
FCBF3E
FCBF3E
FCBF3E
FCBF3E
FCBF3E
FEFF7E
FFFFFE
BFFFFD
7FFFF8
0BFFD0
ENDCHAR
STARTCHAR o
ENCODING 111
SWIDTH 578 0
DWIDTH 12 0
BBX 12 14 0 0
BITMAP
015540
1FAAA4
7D552C
FDBF6D
FDBF6E
FDBF6E
FDBF6E
FDBF6E
FD6A2E
FF55BE
FFFFFE
BFFFFD
7FFFF8
0BFFD0
ENDCHAR
STARTCHAR p
ENCODING 112
SWIDTH 578 0
DWIDTH 12 0
BBX 12 14 0 0
BITMAP
015540
1FAAA4
7E153C
FE7F3D
FE7F3E
FE6A3E
FE15BE
FE7FFE
FE7FFE
FEBFFE
FFFFFE
BFFFFD
7FFFF8
0BFFD0
ENDCHAR
STARTCHAR q
ENCODING 113
SWIDTH 578 0
DWIDTH 12 0
BBX 12 14 0 0
BITMAP
015540
1FAAA4
7D552C
FDBF6D
FDBF6E
FDBF6E
FDBF6E
FDBB6E
FD612E
FF54BE
FFFDFE
BFFFFD
7FFFF8
0BFFD0
ENDCHAR
STARTCHAR r
ENCODING 114
SWIDTH 578 0
DWIDTH 12 0
BBX 12 14 0 0
BITMAP
015540
1EAAE4
7D557C
FDBE7D
FDBE7E
FD15FE
FD697E
FDBE7E
FDBE7E
FEBFBE
FFFFFE
BFFFFD
7FFFF8
0BFFD0
ENDCHAR
STARTCHAR s
ENCODING 115
SWIDTH 578 0
DWIDTH 12 0
BBX 12 14 0 0
BITMAP
015540
1FAAA4
7E55BC
FDBFFD
FD7FFE
FE007E
FFFF3E
FFFF3E
FF693E
FF55BE
FFFFFE
BFFFFD
7FFFF8
0BFFD0
ENDCHAR
STARTCHAR t
ENCODING 116
SWIDTH 578 0
DWIDTH 12 0
BBX 12 14 0 0
BITMAP
015540
1EAAA4
7E517C
FFE3FD
FFE3FE
FFE3FE
FFE3FE
FFE3FE
FFE3FE
FFFBFE
FFFFFE
BFFFFD
7FFFF8
0BFFD0
ENDCHAR
STARTCHAR u
ENCODING 117
SWIDTH 578 0
DWIDTH 12 0
BBX 12 14 0 0
BITMAP
015540
1EFFA4
7CFF6C
FCFF6D
FCFF6E
FCFF6E
FCFF6E
FCFF6E
FD6A3E
FF55BE
FFFFFE
BFFFFD
7FFFF8
0BFFD0
ENDCHAR
STARTCHAR v
ENCODING 118
SWIDTH 578 0
DWIDTH 12 0
BBX 12 14 0 0
BITMAP
015540
1EFFA4
7DBF3C
FD7E7D
FE3D7E
FF3CBE
FF6CFE
FF99FE
FFC6FE
FFE7FE
FFFFFE
BFFFFD
7FFFF8
0BFFD0
ENDCHAR
STARTCHAR w
ENCODING 119
SWIDTH 578 0
DWIDTH 12 0
BBX 12 14 0 0
BITMAP
015540
1BFFD4
76D78C
F6D79D
F5C39E
F9C75E
F9966E
F9956E
FC692E
FE7EBE
FFFFFE
BFFFFD
7FFFF8
0BFFD0
ENDCHAR
STARTCHAR x
ENCODING 120
SWIDTH 578 0
DWIDTH 12 0
BBX 12 14 0 0
BITMAP
015540
1EFFA4
7E7E3C
FF6DBD
FF89FE
FFD2FE
FFC5FE
FF6CBE
FE7E3E
FEBFBE
FFFFFE
BFFFFD
7FFFF8
0BFFD0
ENDCHAR
STARTCHAR y
ENCODING 121
SWIDTH 578 0
DWIDTH 12 0
BBX 12 14 0 0
BITMAP
015540
1EBFA4
7E3E7C
FF2DBD
FF98FE
FFC5FE
FFD3FE
FFE7FE
FFE7FE
FFEBFE
FFFFFE
BFFFFD
7FFFF8
0BFFD0
ENDCHAR
STARTCHAR z
ENCODING 122
SWIDTH 578 0
DWIDTH 12 0
BBX 12 14 0 0
BITMAP
015540
1FAAE4
7F54BC
FFF9FD
FFF2FE
FFD7FE
FFCFFE
FF5FFE
FF1ABE
FF55BE
FFFFFE
BFFFFD
7FFFF8
0BFFD0
ENDCHAR
STARTCHAR braceleft
ENCODING 123
SWIDTH 484 0
DWIDTH 10 0
BBX 10 14 0 0
BITMAP
015400
1F5B40
7E6FD0
FE7FE0
FE7FE0
E4BFE0
E9BFE0
FE7FE0
FE7FE0
FE2BE0
FF9BE0
BFFFD0
7FFFC0
0BFE00
ENDCHAR
STARTCHAR bar
ENCODING 124
SWIDTH 484 0
DWIDTH 10 0
BBX 10 14 0 0
BITMAP
011400
1F6F40
7F6FD0
FF6FE0
FF6FE0
FF6FE0
FF6FE0
FF6FE0
FF6FE0
FF6FE0
FFBFE0
BFFFD0
7FFFC0
0BFE00
ENDCHAR
STARTCHAR braceright
ENCODING 125
SWIDTH 484 0
DWIDTH 10 0
BBX 10 14 0 0
BITMAP
015400
1D6F40
7E8FD0
FFCFE0
FFCBE0
FFD5E0
FFD6E0
FFCBE0
FFCBE0
FE8FE0
FE6FE0
BFFFD0
7FFFC0
0BFE00
ENDCHAR
STARTCHAR asciitilde
ENCODING 126
SWIDTH 578 0
DWIDTH 12 0
BBX 12 14 0 0
BITMAP
015540
1FFFE4
7FFFFC
FFFFBD
FD457E
FDF9FE
FFFFFE
FFFFFE
FFFFFE
FFFFFE
FFFFFE
BFFFFD
7FFFF8
0BFFD0
ENDCHAR
STARTCHAR uni00A0
ENCODING 160
SWIDTH 151 0
DWIDTH 3 0
BBX 1 1 0 0
BITMAP
00
ENDCHAR
STARTCHAR exclamdown
ENCODING 161
SWIDTH 424 0
DWIDTH 8 0
BBX 9 14 0 0
BITMAP
015000
1FB900
7FBF00
FF7F40
FF7F80
FF7F80
FF7F80
FF7F80
FF7F80
FF7F80
FFFF80
BFFF40
7FFE00
0BE400
ENDCHAR
STARTCHAR cent
ENCODING 162
SWIDTH 578 0
DWIDTH 12 0
BBX 12 14 0 0
BITMAP
015540
1FEBE4
7F96FC
FE15FD
FE6BFE
FE6BFE
FE6BFE
FE6BFE
FE00FE
FFE7FE
FFEBFE
BFFFFD
7FFFF8
0BFFD0
ENDCHAR
STARTCHAR sterling
ENCODING 163
SWIDTH 578 0
DWIDTH 12 0
BBX 12 14 0 0
BITMAP
015540
1FEAE4
7F54BC
FF6DBD
FF6FFE
FE16FE
FF6FFE
FF6FFE
FF5AFE
FF95FE
FFFFFE
BFFFFD
7FFFF8
0BFFD0
ENDCHAR
STARTCHAR currency
ENCODING 164
SWIDTH 578 0
DWIDTH 12 0
BBX 12 14 0 0
BITMAP
015540
1FFFA4
7D557C
FE7EBD
FE7E7E
FE7E7E
FE29BE
FD6A3E
FFFFFE
FFFFFE
FFFFFE
BFFFFD
7FFFF8
0BFFD0
ENDCHAR
STARTCHAR yen
ENCODING 165
SWIDTH 578 0
DWIDTH 12 0
BBX 12 14 0 0
BITMAP
015540
1EFEA4
7D7DBC
FE3CFD
FF65FE
FF92FE
FF42FE
FF41FE
FF96FE
FFEBFE
FFFFFE
BFFFFD
7FFFF8
0BFFD0
ENDCHAR
STARTCHAR brokenbar
ENCODING 166
SWIDTH 484 0
DWIDTH 10 0
BBX 10 14 0 0
BITMAP
015400
1FAF40
7F6FD0
FF6FE0
FF6FE0
FFFFE0
FF6FE0
FF6FE0
FF6FE0
FFAFE0
FFFFE0
BFFFD0
7FFFC0
0BFE00
ENDCHAR
STARTCHAR section
ENCODING 167
SWIDTH 578 0
DWIDTH 12 0
BBX 12 14 0 0
BITMAP
015540
1FAAA4
7E6ABC
FEBFFD
FE16FE
FF79FE
FF69FE
FFD5BE
FFFEBE
FEA9BE
FE56FE
BFFFFD
7FFFF8
0BFFD0
ENDCHAR
STARTCHAR dieresis
ENCODING 168
SWIDTH 388 0
DWIDTH 8 0
BBX 8 6 0 0
BITMAP
0A90
7FFC
FBEE
F25E
BFFD
2AA4
ENDCHAR
STARTCHAR copyright
ENCODING 169
SWIDTH 578 0
DWIDTH 12 0
BBX 12 14 0 0
BITMAP
015540
1FAAE4
7DBE7C
F795DD
EB7FEA
DF7FF6
DF7FF6
EB7FEA
F795DE
FDBE6E
FF96FE
BFFFFD
7FFFF8
0BFFD0
ENDCHAR
STARTCHAR ordfeminine
ENCODING 170
SWIDTH 578 0
DWIDTH 12 0
BBX 12 14 0 0
BITMAP
015540
1FAAE4
7F95BC
FFFE7D
FF957E
FE157E
FE7E7E
FF00BE
FFFBFE
FFFFFE
FFFFFE
BFFFFD
7FFFF8
0BFFD0
ENDCHAR
STARTCHAR guillemotleft
ENCODING 171
SWIDTH 578 0
DWIDTH 12 0
BBX 12 14 0 0
BITMAP
015540
1FFFE4
7FEEFC
FFADFD
FF77FE
FDEBFE
FDDFFE
FE77FE
FF69FE
FFDDFE
FFFFFE
BFFFFD
7FFFF8
0BFFD0
ENDCHAR
STARTCHAR uni00AD
ENCODING 173
SWIDTH 428 0
DWIDTH 9 0
BBX 9 14 0 0
BITMAP
015000
1FF900
7FFF00
FFFF40
F40F80
FFFF80
FFFF80
FFFF80
FFFF80
FFFF80
FFFF80
BFFF40
7FFE00
0BF400
ENDCHAR
STARTCHAR registered
ENCODING 174
SWIDTH 578 0
DWIDTH 12 0
BBX 12 14 0 0
BITMAP
015540
1FAAE4
7DBE7C
F755DD
EB7DEA
DF69F6
DF55F6
EB7DEA
F77DDE
FDBE6E
FF96FE
BFFFFD
7FFFF8
0BFFD0
ENDCHAR
STARTCHAR macron
ENCODING 175
SWIDTH 428 0
DWIDTH 9 0
BBX 9 6 0 0
BITMAP
0AA400
7FFE00
FFFF40
F40F80
BFFF40
3FFE00
ENDCHAR
STARTCHAR degree
ENCODING 176
SWIDTH 428 0
DWIDTH 9 0
BBX 9 14 0 0
BITMAP
015000
1EB900
794F00
FADF40
F81F80
FFFF80
FFFF80
FFFF80
FFFF80
FFFF80
FFFF80
BFFF40
7FFE00
0BF400
ENDCHAR
STARTCHAR plusminus
ENCODING 177
SWIDTH 428 0
DWIDTH 9 0
BBX 9 14 0 0
BITMAP
015000
1FB900
7F3F00
F51B40
F92B80
FF3F80
FFBF80
F40F80
FEAF80
FFFF80
FFFF80
BFFF40
7FFE00
0BF400
ENDCHAR
STARTCHAR uni00B2
ENCODING 178
SWIDTH 578 0
DWIDTH 12 0
BBX 12 14 0 0
BITMAP
015540
1FAAE4
7F14FC
FFA8FD
FF16FE
FF2BFE
FF56FE
FFFFFE
FFFFFE
FFFFFE
FFFFFE
BFFFFD
7FFFF8
0BFFD0
ENDCHAR
STARTCHAR uni00B3
ENCODING 179
SWIDTH 578 0
DWIDTH 12 0
BBX 12 14 0 0
BITMAP
015540
1FEAE4
7F157C
FFF97D
FFE97E
FF697E
FF95FE
FFFFFE
FFFFFE
FFFFFE
FFFFFE
BFFFFD
7FFFF8
0BFFD0
ENDCHAR
STARTCHAR acute
ENCODING 180
SWIDTH 308 0
DWIDTH 6 0
BBX 6 7 0 0
BITMAP
1A80
3FF0
79F0
B6E0
F7D0
FF80
6A00
ENDCHAR
STARTCHAR uni00B5
ENCODING 181
SWIDTH 578 0
DWIDTH 12 0
BBX 12 14 0 0
BITMAP
015540
1EFFA4
7CFF3C
FCFF3D
FCFF3E
FCFF3E
FCFF3E
FCFF3E
FC693E
FC55BE
FDFFFE
BFFFFD
7FFFF8
0BFFD0
ENDCHAR
STARTCHAR paragraph
ENCODING 182
SWIDTH 578 0
DWIDTH 12 0
BBX 12 14 0 0
BITMAP
015540
1FAAE4
7D01BC
FC06BD
FC06BE
FE56BE
FFF6BE
FFF6BE
FFF6BE
FFFBFE
FFFFFE
BFFFFD
7FFFF8
0BFFD0
ENDCHAR
STARTCHAR periodcentered
ENCODING 183
SWIDTH 428 0
DWIDTH 9 0
BBX 9 14 0 0
BITMAP
015000
1FF900
7FFF00
FFFF40
FE3F80
FFBF80
FFFF80
FFFF80
FFFF80
FFFF80
FFFF80
BFFF40
7FFE00
0BF400
ENDCHAR
STARTCHAR cedilla
ENCODING 184
SWIDTH 101 0
DWIDTH 2 0
BBX 2 3 0 -3
BITMAP
70
C0
B0
ENDCHAR
STARTCHAR uni00B9
ENCODING 185
SWIDTH 578 0
DWIDTH 12 0
BBX 12 14 0 0
BITMAP
015540
1FEBE4
7F57FC
FFE7FD
FFE7FE
FFE7FE
FFEBFE
FFFFFE
FFFFFE
FFFFFE
FFFFFE
BFFFFD
7FFFF8
0BFFD0
ENDCHAR
STARTCHAR ordmasculine
ENCODING 186
SWIDTH 578 0
DWIDTH 12 0
BBX 12 14 0 0
BITMAP
015540
1FAAA4
7E153C
FE7F3D
FE7F3E
FE7F3E
FE7F3E
FE007E
FFFBFE
FFFFFE
FFFFFE
BFFFFD
7FFFF8
0BFFD0
ENDCHAR
STARTCHAR guillemotright
ENCODING 187
SWIDTH 578 0
DWIDTH 12 0
BBX 12 14 0 0
BITMAP
015540
1FFFE4
7EFBFC
FE77FD
FF69FE
FFDDBE
FFEA7E
FF9DFE
FF76FE
FDEBFE
FFFFFE
BFFFFD
7FFFF8
0BFFD0
ENDCHAR
STARTCHAR onequarter
ENCODING 188
SWIDTH 578 0
DWIDTH 12 0
BBX 12 14 0 0
BITMAP
015540
1AEBE4
65DBFC
F9CBFD
F9CFFE
F9969E
F9669E
FF269E
FF3802
FFBF9E
FFFFEE
BFFFFD
7FFFF8
0BFFD0
ENDCHAR
STARTCHAR onehalf
ENCODING 189
SWIDTH 578 0
DWIDTH 12 0
BBX 12 14 0 0
BITMAP
015540
1AEBE4
65DBFC
F9CBFD
F9CD5E
F9959A
F96E4A
FF25AE
FF35AE
FFB95E
FFFFFE
BFFFFD
7FFFF8
0BFFD0
ENDCHAR
STARTCHAR threequarters
ENCODING 190
SWIDTH 578 0
DWIDTH 12 0
BBX 12 14 0 0
BITMAP
015540
1AEBE4
65DBFC
F9CBFD
F9C95A
F99596
F96F56
FF2FA6
FF3596
FFBD5E
FFFFFE
BFFFFD
7FFFF8
0BFFD0
ENDCHAR
STARTCHAR questiondown
ENCODING 191
SWIDTH 578 0
DWIDTH 12 0
BBX 12 14 0 0
BITMAP
015540
1FF7E4
7FFBFC
FFF7FD
FFA3FE
FE5BFE
FEBFFE
FEBFBE
FE557E
FFAAFE
FFFFFE
BFFFFD
7FFFF8
0BFFD0
ENDCHAR
STARTCHAR Agrave
ENCODING 192
SWIDTH 578 0
DWIDTH 12 0
BBX 12 19 0 0
BITMAP
02A400
0FFC00
0F6D00
0B9E00
07DF00
03FF40
1FFFE4
7E157C
FE7E7D
FDBE7E
FD6A3E
FD553E
FCBF3E
FCFF2E
FDFFBE
FFFFFE
BFFFFD
7FFFF8
0BFFD0
ENDCHAR
STARTCHAR Aacute
ENCODING 193
SWIDTH 578 0
DWIDTH 12 0
BBX 12 19 0 0
BITMAP
001A40
007FE0
00B6E0
00F3D0
01E780
02FF40
1FFFE4
7E157C
FE7E7D
FDBE7E
FD6A3E
FD553E
FCBF3E
FCFF2E
FDFFBE
FFFFFE
BFFFFD
7FFFF8
0BFFD0
ENDCHAR
STARTCHAR Acircumflex
ENCODING 194
SWIDTH 578 0
DWIDTH 12 0
BBX 12 19 0 0
BITMAP
00BE00
01FF40
02D780
03D7D0
07A9E0
0BFFE0
1FFFF4
7E157C
FE7E7D
FDBE7E
FD6A3E
FD553E
FCBF3E
FCFF2E
FDFFBE
FFFFFE
BFFFFD
7FFFF8
0BFFD0
ENDCHAR
STARTCHAR Atilde
ENCODING 195
SWIDTH 578 0
DWIDTH 12 0
BBX 12 20 0 0
BITMAP
005500
02FF80
0BFFF0
0FFFF4
1F5DF4
0F65F0
07FFE0
1FAAE4
7E157C
FE7E7D
FDBE7E
FD6A3E
FD553E
FCBF3E
FCFF2E
FDFFBE
FFFFFE
BFFFFD
7FFFF8
0BFFD0
ENDCHAR
STARTCHAR Adieresis
ENCODING 196
SWIDTH 578 0
DWIDTH 12 0
BBX 12 18 0 0
BITMAP
006A00
03FFD0
0BBEF0
0B28F0
0BFFE0
1FFFF4
7E157C
FE7E7D
FDBE7E
FD6A3E
FD553E
FCBF3E
FCFF2E
FDFFBE
FFFFFE
BFFFFD
7FFFF8
0BFFD0
ENDCHAR
STARTCHAR Aring
ENCODING 197
SWIDTH 578 0
DWIDTH 12 0
BBX 12 20 0 0
BITMAP
001400
01FF40
03EBC0
0B69E0
0B69E0
0B96E0
07FFC0
1FAAE4
7E157C
FE7E7D
FDBE7E
FD6A3E
FD553E
FCBF3E
FCFF2E
FDFFBE
FFFFFE
BFFFFD
7FFFF8
0BFFD0
ENDCHAR
STARTCHAR AE
ENCODING 198
SWIDTH 578 0
DWIDTH 12 0
BBX 12 14 0 0
BITMAP
015540
1F9564
7D517C
FCE7FD
FCE7FE
FCE02E
F9E7FE
F847FE
F996BE
FAE57E
FFFFFE
BFFFFD
7FFFF8
0BFFD0
ENDCHAR
STARTCHAR Ccedilla
ENCODING 199
SWIDTH 578 0
DWIDTH 12 0
BBX 12 14 0 0
BITMAP
015540
1FAAE4
7C55FC
FCFFFD
FCFFFE
FCFFFE
FCFFFE
FCFFFE
FC69FE
FE55FE
FF8BFE
BF5FFD
7FDBF8
0BFFD0
ENDCHAR
STARTCHAR Egrave
ENCODING 200
SWIDTH 578 0
DWIDTH 12 0
BBX 12 19 0 0
BITMAP
01A400
0BFD00
0F5E00
0BDF00
03DF40
02FF40
1FFFA4
7F15BC
FF3FFD
FF3FFE
FF00BE
FF3FFE
FF3FFE
FF2ABE
FF55BE
FFFFFE
BFFFFD
7FFFF8
0BFFD0
ENDCHAR
STARTCHAR Eacute
ENCODING 201
SWIDTH 578 0
DWIDTH 12 0
BBX 12 19 0 0
BITMAP
001A40
007FE0
00B9F0
00F6E0
00F7C0
01FF80
1FFFA4
7F15BC
FF3FFD
FF3FFE
FF00BE
FF3FFE
FF3FFE
FF2ABE
FF55BE
FFFFFE
BFFFFD
7FFFF8
0BFFD0
ENDCHAR
STARTCHAR Ecircumflex
ENCODING 202
SWIDTH 578 0
DWIDTH 12 0
BBX 12 19 0 0
BITMAP
007E00
00FF80
02E7C0
03DAD0
07ADE0
07FFE0
1FFFF4
7F15BC
FF3FFD
FF3FFE
FF00BE
FF3FFE
FF3FFE
FF2ABE
FF55BE
FFFFFE
BFFFFD
7FFFF8
0BFFD0
ENDCHAR
STARTCHAR Edieresis
ENCODING 203
SWIDTH 578 0
DWIDTH 12 0
BBX 12 18 0 0
BITMAP
006A40
03FFD0
0BBEF0
0B5CF0
07FFF0
1FFFF4
7F15BC
FF3FFD
FF3FFE
FF00BE
FF3FFE
FF3FFE
FF2ABE
FF55BE
FFFFFE
BFFFFD
7FFFF8
0BFFD0
ENDCHAR
STARTCHAR Igrave
ENCODING 204
SWIDTH 578 0
DWIDTH 12 0
BBX 12 19 0 0
BITMAP
01A400
0BFD00
0F5E00
07CF00
03DB40
02FF40
1EFFA4
7E517C
FFE3FD
FFE3FE
FFE3FE
FFE3FE
FFE3FE
FE92BE
FE557E
FFFFFE
BFFFFD
7FFFF8
0BFFD0
ENDCHAR
STARTCHAR Iacute
ENCODING 205
SWIDTH 578 0
DWIDTH 12 0
BBX 12 19 0 0
BITMAP
001A40
003FE0
0079F0
00B6E0
00F7C0
01FF80
1EFFA4
7E517C
FFE3FD
FFE3FE
FFE3FE
FFE3FE
FFE3FE
FE92BE
FE557E
FFFFFE
BFFFFD
7FFFF8
0BFFD0
ENDCHAR
STARTCHAR Icircumflex
ENCODING 206
SWIDTH 578 0
DWIDTH 12 0
BBX 12 19 0 0
BITMAP
007F00
00FB80
01E7C0
03DAE0
039DE0
07FFF0
1FFFF4
7E517C
FFE3FD
FFE3FE
FFE3FE
FFE3FE
FFE3FE
FE92BE
FE557E
FFFFFE
BFFFFD
7FFFF8
0BFFD0
ENDCHAR
STARTCHAR Idieresis
ENCODING 207
SWIDTH 578 0
DWIDTH 12 0
BBX 12 18 0 0
BITMAP
006A40
02FFE0
07AEF0
0B5CB4
07FFF0
1FFFF4
7E517C
FFE3FD
FFE3FE
FFE3FE
FFE3FE
FFE3FE
FE92BE
FE557E
FFFFFE
BFFFFD
7FFFF8
0BFFD0
ENDCHAR
STARTCHAR Eth
ENCODING 208
SWIDTH 578 0
DWIDTH 12 0
BBX 12 14 0 0
BITMAP
015540
1EAAA4
7D552C
FDBF6D
FDBF6E
F87F6E
FDBF6E
FDBF6E
FD6A2E
FE55BE
FFFFFE
BFFFFD
7FFFF8
0BFFD0
ENDCHAR
STARTCHAR Ntilde
ENCODING 209
SWIDTH 578 0
DWIDTH 12 0
BBX 12 20 0 0
BITMAP
005500
02FF80
0FFFE0
1FFFF0
1F69F4
1E65F0
0BFFD0
1EAAA4
7C553C
FCBF3D
FCBF3E
FCBF3E
FCBF3E
FCBF3E
FCBF3E
FEFF7E
FFFFFE
BFFFFD
7FFFF8
0BFFD0
ENDCHAR
STARTCHAR Ograve
ENCODING 210
SWIDTH 578 0
DWIDTH 12 0
BBX 12 19 0 0
BITMAP
01A400
0BFD00
0F6E00
0B9F00
03DF00
02FF40
1FFFA4
7D552C
FDBF6D
FDBF6E
FDBF6E
FDBF6E
FDBF6E
FD6A2E
FF55BE
FFFFFE
BFFFFD
7FFFF8
0BFFD0
ENDCHAR
STARTCHAR Oacute
ENCODING 211
SWIDTH 578 0
DWIDTH 12 0
BBX 12 19 0 0
BITMAP
001A40
007FE0
00B5F0
00F7E0
01F7C0
01FF80
1FFFA4
7D552C
FDBF6D
FDBF6E
FDBF6E
FDBF6E
FDBF6E
FD6A2E
FF55BE
FFFFFE
BFFFFD
7FFFF8
0BFFD0
ENDCHAR
STARTCHAR Ocircumflex
ENCODING 212
SWIDTH 578 0
DWIDTH 12 0
BBX 12 19 0 0
BITMAP
007E00
00FF80
02D7C0
03DAD0
07ADE0
07FFE0
1FFFF4
7D552C
FDBF6D
FDBF6E
FDBF6E
FDBF6E
FDBF6E
FD6A2E
FF55BE
FFFFFE
BFFFFD
7FFFF8
0BFFD0
ENDCHAR
STARTCHAR Otilde
ENCODING 213
SWIDTH 578 0
DWIDTH 12 0
BBX 12 20 0 0
BITMAP
001500
02FF90
0BFFF0
0FFFF4
0F59B8
0F65F4
07FFE0
1FAAA4
7D552C
FDBF6D
FDBF6E
FDBF6E
FDBF6E
FDBF6E
FD6A2E
FF55BE
FFFFFE
BFFFFD
7FFFF8
0BFFD0
ENDCHAR
STARTCHAR Odieresis
ENCODING 214
SWIDTH 578 0
DWIDTH 12 0
BBX 12 18 0 0
BITMAP
006A40
03FFD0
0BBEF0
0B58F0
07FFE0
1FFFF4
7D552C
FDBF6D
FDBF6E
FDBF6E
FDBF6E
FDBF6E
FD6A2E
FF55BE
FFFFFE
BFFFFD
7FFFF8
0BFFD0
ENDCHAR
STARTCHAR multiply
ENCODING 215
SWIDTH 578 0
DWIDTH 12 0
BBX 12 14 0 0
BITMAP
015540
1FFFE4
7FFFFC
FFBEFD
FF95FE
FFD3FE
FF99FE
FFFFFE
FFFFFE
FFFFFE
FFFFFE
BFFFFD
7FFFF8
0BFFD0
ENDCHAR
STARTCHAR Oslash
ENCODING 216
SWIDTH 578 0
DWIDTH 12 0
BBX 12 14 0 0
BITMAP
015540
1F96A4
7D553C
FCFC2D
FCF62E
FCE72E
FC8F2E
FC6F2E
FC153E
FF95BE
FFFFFE
BFFFFD
7FFFF8
0BFFD0
ENDCHAR
STARTCHAR Ugrave
ENCODING 217
SWIDTH 578 0
DWIDTH 12 0
BBX 12 19 0 0
BITMAP
01A400
0BFD00
0F5E00
0BDF00
03DF40
02FF40
1EFFA4
7CFF6C
FCFF6D
FCFF6E
FCFF6E
FCFF6E
FCFF6E
FD6A3E
FF55BE
FFFFFE
BFFFFD
7FFFF8
0BFFD0
ENDCHAR
STARTCHAR Uacute
ENCODING 218
SWIDTH 578 0
DWIDTH 12 0
BBX 12 19 0 0
BITMAP
001A40
007FE0
00B9F0
00F6E0
00F7C0
01FF80
1EFFA4
7CFF6C
FCFF6D
FCFF6E
FCFF6E
FCFF6E
FCFF6E
FD6A3E
FF55BE
FFFFFE
BFFFFD
7FFFF8
0BFFD0
ENDCHAR
STARTCHAR Ucircumflex
ENCODING 219
SWIDTH 578 0
DWIDTH 12 0
BBX 12 19 0 0
BITMAP
007E00
00FF80
02E7C0
03DAD0
07ADE0
07FFE0
1FFFF4
7CFF6C
FCFF6D
FCFF6E
FCFF6E
FCFF6E
FCFF6E
FD6A3E
FF55BE
FFFFFE
BFFFFD
7FFFF8
0BFFD0
ENDCHAR
STARTCHAR Udieresis
ENCODING 220
SWIDTH 578 0
DWIDTH 12 0
BBX 12 18 0 0
BITMAP
006A40
03FFD0
0BBEF0
0B5CF0
07FFF0
1FFFF4
7CFF6C
FCFF6D
FCFF6E
FCFF6E
FCFF6E
FCFF6E
FD6A3E
FF55BE
FFFFFE
BFFFFD
7FFFF8
0BFFD0
ENDCHAR
STARTCHAR Yacute
ENCODING 221
SWIDTH 578 0
DWIDTH 12 0
BBX 12 19 0 0
BITMAP
001A40
007FE0
00B9F0
00F7E0
00F7C0
01FF80
1EFFA4
7E3E7C
FF2DBD
FF98FE
FFC5FE
FFD3FE
FFE7FE
FFE7FE
FFEBFE
FFFFFE
BFFFFD
7FFFF8
0BFFD0
ENDCHAR
STARTCHAR Thorn
ENCODING 222
SWIDTH 578 0
DWIDTH 12 0
BBX 12 14 0 0
BITMAP
015540
1E7FE4
7E7FFC
FE007D
FE7F3E
FE7F3E
FE153E
FE6AFE
FE7FFE
FEBFFE
FFFFFE
BFFFFD
7FFFF8
0BFFD0
ENDCHAR
STARTCHAR germandbls
ENCODING 223
SWIDTH 578 0
DWIDTH 12 0
BBX 12 14 0 0
BITMAP
015540
1FAAE4
7D557C
FCFE7D
FCFD7E
FCF97E
FCFF6E
FCFF6E
FCEA3E
FDE5BE
FFFFFE
BFFFFD
7FFFF8
0BFFD0
ENDCHAR
STARTCHAR agrave
ENCODING 224
SWIDTH 578 0
DWIDTH 12 0
BBX 12 19 0 0
BITMAP
01A400
0BFD00
0F6E00
0BDF00
03DF00
02FF40
1EFFE4
7E55BC
FFFEBD
FFFEBE
FE55BE
FCA9BE
FCFEBE
FC69BE
FE56BE
FFFFFE
BFFFFD
7FFFF8
0BFFD0
ENDCHAR
STARTCHAR aacute
ENCODING 225
SWIDTH 578 0
DWIDTH 12 0
BBX 12 19 0 0
BITMAP
001A40
007FE0
00B9F0
00F6E0
00F7C0
01FF80
1EFFE4
7E55BC
FFFEBD
FFFEBE
FE55BE
FCA9BE
FCFEBE
FC69BE
FE56BE
FFFFFE
BFFFFD
7FFFF8
0BFFD0
ENDCHAR
STARTCHAR acircumflex
ENCODING 226
SWIDTH 578 0
DWIDTH 12 0
BBX 12 19 0 0
BITMAP
007E00
00FF80
02E7C0
03DAD0
07ADE0
07FFE0
1FFFF4
7E55BC
FFFEBD
FFFEBE
FE55BE
FCA9BE
FCFEBE
FC69BE
FE56BE
FFFFFE
BFFFFD
7FFFF8
0BFFD0
ENDCHAR
STARTCHAR atilde
ENCODING 227
SWIDTH 578 0
DWIDTH 12 0
BBX 12 20 0 0
BITMAP
001500
02FFD0
0BFFF0
0FFFF4
0F99B8
0B65F4
07FFE0
1EAAE4
7E55BC
FFFEBD
FFFEBE
FE55BE
FCA9BE
FCFEBE
FC69BE
FE56BE
FFFFFE
BFFFFD
7FFFF8
0BFFD0
ENDCHAR
STARTCHAR adieresis
ENCODING 228
SWIDTH 578 0
DWIDTH 12 0
BBX 12 18 0 0
BITMAP
006A40
03FFD0
0BBEF0
0B58F0
07FFF0
1FFFF4
7E55BC
FFFEBD
FFFEBE
FE55BE
FCA9BE
FCFEBE
FC69BE
FE56BE
FFFFFE
BFFFFD
7FFFF8
0BFFD0
ENDCHAR
STARTCHAR aring
ENCODING 229
SWIDTH 578 0
DWIDTH 12 0
BBX 12 20 0 0
BITMAP
000400
01BF40
03EBD0
0799E0
0BADF0
07D6E0
03FFD0
1EAAE4
7E55BC
FFFEBD
FFFEBE
FE55BE
FCA9BE
FCFEBE
FC69BE
FE56BE
FFFFFE
BFFFFD
7FFFF8
0BFFD0
ENDCHAR
STARTCHAR ae
ENCODING 230
SWIDTH 578 0
DWIDTH 12 0
BBX 12 14 0 0
BITMAP
015540
1F9564
7D517C
FCE7FD
FCE7FE
FCE02E
F9E7FE
F847FE
F996BE
FAE57E
FFFFFE
BFFFFD
7FFFF8
0BFFD0
ENDCHAR
STARTCHAR ccedilla
ENCODING 231
SWIDTH 578 0
DWIDTH 12 0
BBX 12 14 0 0
BITMAP
015540
1FAAE4
7C55FC
FCFFFD
FCFFFE
FCFFFE
FCFFFE
FCFFFE
FC69FE
FE55FE
FF8BFE
BF6FFD
7FDBF8
0BFFD0
ENDCHAR
STARTCHAR egrave
ENCODING 232
SWIDTH 578 0
DWIDTH 12 0
BBX 12 20 0 0
BITMAP
01A400
0BFD00
0F6E00
0B9E00
03DF00
01FF00
01FE40
1EAAE4
7C55BC
FCFE7D
FCA97E
FC55BE
FCFFFE
FCFFFE
FD14FE
FFAAFE
FFFFFE
BFFFFD
7FFFF8
0BFFD0
ENDCHAR
STARTCHAR eacute
ENCODING 233
SWIDTH 578 0
DWIDTH 12 0
BBX 12 20 0 0
BITMAP
001A40
007FD0
00F6E0
00F3D0
01EB80
01FF40
01FF40
1EAAE4
7C55BC
FCFE7D
FCA97E
FC55BE
FCFFFE
FCFFFE
FD14FE
FFAAFE
FFFFFE
BFFFFD
7FFFF8
0BFFD0
ENDCHAR
STARTCHAR ecircumflex
ENCODING 234
SWIDTH 578 0
DWIDTH 12 0
BBX 12 19 0 0
BITMAP
00BD00
02FF00
03D780
07A7C0
0B7AD0
0BFFD0
1FFFF4
7C55BC
FCFE7D
FCA97E
FC55BE
FCFFFE
FCFFFE
FD14FE
FFAAFE
FFFFFE
BFFFFD
7FFFF8
0BFFD0
ENDCHAR
STARTCHAR edieresis
ENCODING 235
SWIDTH 578 0
DWIDTH 12 0
BBX 12 18 0 0
BITMAP
01A900
07FFC0
0FBBE0
0E35E0
0FFFD0
1FFFE4
7C55BC
FCFE7D
FCA97E
FC55BE
FCFFFE
FCFFFE
FD14FE
FFAAFE
FFFFFE
BFFFFD
7FFFF8
0BFFD0
ENDCHAR
STARTCHAR igrave
ENCODING 236
SWIDTH 578 0
DWIDTH 12 0
BBX 12 19 0 0
BITMAP
01A400
0BFD00
0F5E00
0BDF00
03DF40
02FF40
1EFFA4
7E517C
FFE3FD
FFE3FE
FFE3FE
FFE3FE
FFE3FE
FE92BE
FE557E
FFFFFE
BFFFFD
7FFFF8
0BFFD0
ENDCHAR
STARTCHAR iacute
ENCODING 237
SWIDTH 578 0
DWIDTH 12 0
BBX 12 19 0 0
BITMAP
001A40
007FE0
00B9F0
00B6E0
00F7C0
01FF80
1EFFA4
7E517C
FFE3FD
FFE3FE
FFE3FE
FFE3FE
FFE3FE
FE92BE
FE557E
FFFFFE
BFFFFD
7FFFF8
0BFFD0
ENDCHAR
STARTCHAR icircumflex
ENCODING 238
SWIDTH 578 0
DWIDTH 12 0
BBX 12 19 0 0
BITMAP
007F00
00FF80
02E7C0
03DAD0
079DE0
07FFE0
1FFFF4
7E517C
FFE3FD
FFE3FE
FFE3FE
FFE3FE
FFE3FE
FE92BE
FE557E
FFFFFE
BFFFFD
7FFFF8
0BFFD0
ENDCHAR
STARTCHAR idieresis
ENCODING 239
SWIDTH 578 0
DWIDTH 12 0
BBX 12 18 0 0
BITMAP
006A40
02FFD0
07BEF0
0B5CF4
07FFF0
1FFFF4
7E517C
FFE3FD
FFE3FE
FFE3FE
FFE3FE
FFE3FE
FE92BE
FE557E
FFFFFE
BFFFFD
7FFFF8
0BFFD0
ENDCHAR
STARTCHAR eth
ENCODING 240
SWIDTH 578 0
DWIDTH 12 0
BBX 12 14 0 0
BITMAP
015540
1EAAA4
7D552C
FDBF6D
FDBF6E
F87F6E
FDBF6E
FDBF6E
FD6A2E
FE55BE
FFFFFE
BFFFFD
7FFFF8
0BFFD0
ENDCHAR
STARTCHAR ntilde
ENCODING 241
SWIDTH 578 0
DWIDTH 12 0
BBX 12 20 0 0
BITMAP
005400
02FF80
0FFFE0
1FFFF0
1F69F0
1E65F0
0BFFD0
1EAAA4
7C553C
FCBF3D
FCBF3E
FCBF3E
FCBF3E
FCBF3E
FCBF3E
FEFF7E
FFFFFE
BFFFFD
7FFFF8
0BFFD0
ENDCHAR
STARTCHAR oacute
ENCODING 243
SWIDTH 578 0
DWIDTH 12 0
BBX 12 19 0 0
BITMAP
001A40
007FD0
00B6E0
00F3D0
01EB80
02FF40
1FFFA4
7D552C
FDBF6D
FDBF6E
FDBF6E
FDBF6E
FDBF6E
FD6A2E
FF55BE
FFFFFE
BFFFFD
7FFFF8
0BFFD0
ENDCHAR
STARTCHAR ocircumflex
ENCODING 244
SWIDTH 578 0
DWIDTH 12 0
BBX 12 19 0 0
BITMAP
007E00
00FF80
02E7C0
03DAD0
07ADE0
07FFE0
1FFFF4
7D552C
FDBF6D
FDBF6E
FDBF6E
FDBF6E
FDBF6E
FD6A2E
FF55BE
FFFFFE
BFFFFD
7FFFF8
0BFFD0
ENDCHAR
STARTCHAR otilde
ENCODING 245
SWIDTH 578 0
DWIDTH 12 0
BBX 12 20 0 0
BITMAP
001500
02FF80
0BFFF0
0FFFF4
0F5DF4
0F65F4
07FFE0
1FAAA4
7D552C
FDBF6D
FDBF6E
FDBF6E
FDBF6E
FDBF6E
FD6A2E
FF55BE
FFFFFE
BFFFFD
7FFFF8
0BFFD0
ENDCHAR
STARTCHAR odieresis
ENCODING 246
SWIDTH 578 0
DWIDTH 12 0
BBX 12 18 0 0
BITMAP
006A40
03FFD0
0BBEF0
0B5CF0
07FFF0
1FFFF4
7D552C
FDBF6D
FDBF6E
FDBF6E
FDBF6E
FDBF6E
FD6A2E
FF55BE
FFFFFE
BFFFFD
7FFFF8
0BFFD0
ENDCHAR
STARTCHAR divide
ENCODING 247
SWIDTH 428 0
DWIDTH 9 0
BBX 9 14 0 0
BITMAP
015000
1FF900
7E7F00
FE7F40
F40F80
FEBF80
FE7F80
FFFF80
FFFF80
FFFF80
FFFF80
BFFF40
7FFE00
0BF400
ENDCHAR
STARTCHAR oslash
ENCODING 248
SWIDTH 578 0
DWIDTH 12 0
BBX 12 14 0 0
BITMAP
015540
1F96A4
7D553C
FCFC2D
FCF62E
FCE72E
FC8F2E
FC6F2E
FC153E
FF95BE
FFFFFE
BFFFFD
7FFFF8
0BFFD0
ENDCHAR
STARTCHAR ugrave
ENCODING 249
SWIDTH 578 0
DWIDTH 12 0
BBX 12 19 0 0
BITMAP
01A400
0BFD00
0F5E00
0BDF00
03DF40
02FF40
1EFFA4
7CFF6C
FCFF6D
FCFF6E
FCFF6E
FCFF6E
FCFF6E
FD6A3E
FF55BE
FFFFFE
BFFFFD
7FFFF8
0BFFD0
ENDCHAR
STARTCHAR uacute
ENCODING 250
SWIDTH 578 0
DWIDTH 12 0
BBX 12 19 0 0
BITMAP
001A40
007FE0
00B9F0
00B6E0
00F7C0
01FF80
1EFFA4
7CFF6C
FCFF6D
FCFF6E
FCFF6E
FCFF6E
FCFF6E
FD6A3E
FF55BE
FFFFFE
BFFFFD
7FFFF8
0BFFD0
ENDCHAR
STARTCHAR ucircumflex
ENCODING 251
SWIDTH 578 0
DWIDTH 12 0
BBX 12 19 0 0
BITMAP
007F00
00FF80
02E7C0
03DAD0
079DE0
07FFE0
1FFFF4
7CFF6C
FCFF6D
FCFF6E
FCFF6E
FCFF6E
FCFF6E
FD6A3E
FF55BE
FFFFFE
BFFFFD
7FFFF8
0BFFD0
ENDCHAR
STARTCHAR udieresis
ENCODING 252
SWIDTH 578 0
DWIDTH 12 0
BBX 12 18 0 0
BITMAP
006A40
02FFD0
07BEF0
0B5CF4
07FFF0
1FFFF4
7CFF6C
FCFF6D
FCFF6E
FCFF6E
FCFF6E
FCFF6E
FD6A3E
FF55BE
FFFFFE
BFFFFD
7FFFF8
0BFFD0
ENDCHAR
STARTCHAR yacute
ENCODING 253
SWIDTH 578 0
DWIDTH 12 0
BBX 12 19 0 0
BITMAP
001A40
007FE0
00B9F0
00F7E0
00F7C0
01FF80
1EFFA4
7E3E7C
FF2DBD
FF98FE
FFC5FE
FFD3FE
FFE7FE
FFE7FE
FFEBFE
FFFFFE
BFFFFD
7FFFF8
0BFFD0
ENDCHAR
STARTCHAR thorn
ENCODING 254
SWIDTH 578 0
DWIDTH 12 0
BBX 12 14 0 0
BITMAP
015540
1E7FE4
7E7FFC
FE007D
FE7F3E
FE7F3E
FE153E
FE6AFE
FE7FFE
FEBFFE
FFFFFE
BFFFFD
7FFFF8
0BFFD0
ENDCHAR
STARTCHAR ydieresis
ENCODING 255
SWIDTH 578 0
DWIDTH 12 0
BBX 12 18 0 0
BITMAP
006A40
03FFD0
0BBEF0
0B58F0
07FFE0
1FFFF4
7E3E7C
FF2DBD
FF98FE
FFC5FE
FFD3FE
FFE7FE
FFE7FE
FFEBFE
FFFFFE
BFFFFD
7FFFF8
0BFFD0
ENDCHAR
STARTCHAR Amacron
ENCODING 256
SWIDTH 578 0
DWIDTH 12 0
BBX 12 18 0 0
BITMAP
01AA40
07FFE0
0FFFF4
1F01F4
0FFFF0
1FFFF4
7E157C
FE7E7D
FDBE7E
FD6A3E
FD553E
FCBF3E
FCFF2E
FDFFBE
FFFFFE
BFFFFD
7FFFF8
0BFFD0
ENDCHAR
STARTCHAR amacron
ENCODING 257
SWIDTH 578 0
DWIDTH 12 0
BBX 12 18 0 0
BITMAP
00AA40
07FFE0
0FFFF4
0F40F8
0FFFF4
1FFFF4
7E55BC
FFFEBD
FFFEBE
FE55BE
FCA9BE
FCFEBE
FC69BE
FE56BE
FFFFFE
BFFFFD
7FFFF8
0BFFD0
ENDCHAR
STARTCHAR Abreve
ENCODING 258
SWIDTH 578 0
DWIDTH 12 0
BBX 12 19 0 0
BITMAP
01AA40
07FFE0
0FFFF4
1F69F4
0F96F0
07FFD0
1FAAE4
7E157C
FE7E7D
FDBE7E
FD6A3E
FD553E
FCBF3E
FCFF2E
FDFFBE
FFFFFE
BFFFFD
7FFFF8
0BFFD0
ENDCHAR
STARTCHAR abreve
ENCODING 259
SWIDTH 578 0
DWIDTH 12 0
BBX 12 19 0 0
BITMAP
00AA40
07FFE0
0FFFF4
0FADF8
0BD6F4
07FFE0
1EAAE4
7E55BC
FFFEBD
FFFEBE
FE55BE
FCA9BE
FCFEBE
FC69BE
FE56BE
FFFFFE
BFFFFD
7FFFF8
0BFFD0
ENDCHAR
STARTCHAR Aogonek
ENCODING 260
SWIDTH 578 0
DWIDTH 12 0
BBX 12 14 0 0
BITMAP
015540
1FAAE4
7E157C
FE7E7D
FDBE7E
FD6A3E
FD553E
FCBF3E
FCFF2E
FDFF6E
FFFDBE
BFFDBD
7FFE78
0BFFD0
ENDCHAR
STARTCHAR aogonek
ENCODING 261
SWIDTH 578 0
DWIDTH 12 0
BBX 12 14 0 0
BITMAP
015540
1EAAE4
7E55BC
FFFE7D
FFFE7E
FE557E
FCA97E
FCFE7E
FC697E
FE51BE
FFDFFE
BF9BFD
7FE7F8
0BFFD0
ENDCHAR
STARTCHAR Cacute
ENCODING 262
SWIDTH 578 0
DWIDTH 12 0
BBX 12 19 0 0
BITMAP
001A40
003FE0
0079F0
00B6E0
00F7C0
01FF80
1FFFE4
7C55FC
FCFFFD
FCFFFE
FCFFFE
FCFFFE
FCFFFE
FC69FE
FE55FE
FFFFFE
BFFFFD
7FFFF8
0BFFD0
ENDCHAR
STARTCHAR cacute
ENCODING 263
SWIDTH 578 0
DWIDTH 12 0
BBX 12 19 0 0
BITMAP
001A40
007FE0
00B9F0
00F6E0
00F7C0
01FF80
1FFFE4
7C55FC
FCFFFD
FCFFFE
FCFFFE
FCFFFE
FCFFFE
FC69FE
FE55FE
FFFFFE
BFFFFD
7FFFF8
0BFFD0
ENDCHAR
STARTCHAR Ccircumflex
ENCODING 264
SWIDTH 578 0
DWIDTH 12 0
BBX 12 19 0 0
BITMAP
00BE00
01FF40
02D7C0
03D6D0
07A9E0
0BFFE0
1FFFF4
7C55FC
FCFFFD
FCFFFE
FCFFFE
FCFFFE
FCFFFE
FC69FE
FE55FE
FFFFFE
BFFFFD
7FFFF8
0BFFD0
ENDCHAR
STARTCHAR ccircumflex
ENCODING 265
SWIDTH 578 0
DWIDTH 12 0
BBX 12 19 0 0
BITMAP
00BE00
01FF40
02D780
03D7D0
07A9E0
0BFFE0
1FFFF4
7C55FC
FCFFFD
FCFFFE
FCFFFE
FCFFFE
FCFFFE
FC69FE
FE55FE
FFFFFE
BFFFFD
7FFFF8
0BFFD0
ENDCHAR
STARTCHAR Cdotaccent
ENCODING 266
SWIDTH 578 0
DWIDTH 12 0
BBX 12 18 0 0
BITMAP
01AA00
0BFFD0
2FFFE0
2FCBF0
1FFFE0
2FFFF4
7C55FC
FCFFFD
FCFFFE
FCFFFE
FCFFFE
FCFFFE
FC69FE
FE55FE
FFFFFE
BFFFFD
7FFFF8
0BFFD0
ENDCHAR
STARTCHAR cdotaccent
ENCODING 267
SWIDTH 578 0
DWIDTH 12 0
BBX 12 18 0 0
BITMAP
01AA00
0BFFD0
1FFFF0
1FCBF0
1FFFF0
2FFFF4
7C55FC
FCFFFD
FCFFFE
FCFFFE
FCFFFE
FCFFFE
FC69FE
FE55FE
FFFFFE
BFFFFD
7FFFF8
0BFFD0
ENDCHAR
STARTCHAR Ccaron
ENCODING 268
SWIDTH 578 0
DWIDTH 12 0
BBX 12 19 0 0
BITMAP
015640
0BFFC0
0F7AD0
0B77C0
07DBC0
07FF80
1FFFE4
7C55FC
FCFFFD
FCFFFE
FCFFFE
FCFFFE
FCFFFE
FC69FE
FE55FE
FFFFFE
BFFFFD
7FFFF8
0BFFD0
ENDCHAR
STARTCHAR ccaron
ENCODING 269
SWIDTH 578 0
DWIDTH 12 0
BBX 12 19 0 0
BITMAP
019640
0BFFD0
0B7AD0
0BA7D0
07D7C0
03FFC0
1FFFE4
7C55FC
FCFFFD
FCFFFE
FCFFFE
FCFFFE
FCFFFE
FC69FE
FE55FE
FFFFFE
BFFFFD
7FFFF8
0BFFD0
ENDCHAR
STARTCHAR Dcaron
ENCODING 270
SWIDTH 578 0
DWIDTH 12 0
BBX 12 20 0 0
BITMAP
019640
0BFFC0
0B7AD0
0BA7D0
07D7C0
03EF80
02FF40
1EAAA4
7D552C
FDBF6D
FDBF6E
FDBF6E
FDBF6E
FDBF6E
FD6A2E
FE55BE
FFFFFE
BFFFFD
7FFFF8
0BFFD0
ENDCHAR
STARTCHAR dcaron
ENCODING 271
SWIDTH 578 0
DWIDTH 12 0
BBX 12 14 0 0
BITMAP
015540
1AAA94
75545C
F6FCAD
F6FCFE
F6FCFE
F6FCFE
F6FCFE
F5A4FE
F956FE
FFFFFE
BFFFFD
7FFFF8
0BFFD0
ENDCHAR
STARTCHAR Dcroat
ENCODING 272
SWIDTH 578 0
DWIDTH 12 0
BBX 12 14 0 0
BITMAP
015540
1EAAA4
7D552C
FDBF6D
F8AF6E
F46F6E
FDBF6E
FDBF6E
FD6A2E
FE55BE
FFFFFE
BFFFFD
7FFFF8
0BFFD0
ENDCHAR
STARTCHAR dcroat
ENCODING 273
SWIDTH 578 0
DWIDTH 12 0
BBX 12 14 0 0
BITMAP
015540
1EAAA4
7D552C
FDBF6D
F8AF6E
F46F6E
FDBF6E
FDBF6E
FD6A2E
FE55BE
FFFFFE
BFFFFD
7FFFF8
0BFFD0
ENDCHAR
STARTCHAR Emacron
ENCODING 274
SWIDTH 578 0
DWIDTH 12 0
BBX 12 18 0 0
BITMAP
00AA40
07FFE0
0FFFF4
0F40F8
0BFFF4
1FFFF4
7F15BC
FF3FFD
FF3FFE
FF00BE
FF3FFE
FF3FFE
FF2ABE
FF55BE
FFFFFE
BFFFFD
7FFFF8
0BFFD0
ENDCHAR
STARTCHAR emacron
ENCODING 275
SWIDTH 578 0
DWIDTH 12 0
BBX 12 18 0 0
BITMAP
01AA00
0BFFD0
1FFFF0
2E02F0
1FFFE0
1FFFF4
7C55BC
FCFE7D
FCA97E
FC55BE
FCFFFE
FCFFFE
FD14FE
FFAAFE
FFFFFE
BFFFFD
7FFFF8
0BFFD0
ENDCHAR
STARTCHAR Ebreve
ENCODING 276
SWIDTH 578 0
DWIDTH 12 0
BBX 12 19 0 0
BITMAP
00AA40
07FFE0
0FFFF4
0F9DF8
0BD6F4
07FFE0
1FAAA4
7F15BC
FF3FFD
FF3FFE
FF00BE
FF3FFE
FF3FFE
FF2ABE
FF55BE
FFFFFE
BFFFFD
7FFFF8
0BFFD0
ENDCHAR
STARTCHAR ebreve
ENCODING 277
SWIDTH 578 0
DWIDTH 12 0
BBX 12 19 0 0
BITMAP
01AA00
0BFFD0
1FFFF0
2F79F0
1F97E0
0BFFC0
1EAAE4
7C55BC
FCFE7D
FCA97E
FC55BE
FCFFFE
FCFFFE
FD14FE
FFAAFE
FFFFFE
BFFFFD
7FFFF8
0BFFD0
ENDCHAR
STARTCHAR Edotaccent
ENCODING 278
SWIDTH 578 0
DWIDTH 12 0
BBX 12 19 0 0
BITMAP
00AA40
07FFE0
0FFFF4
0FE3F8
0BFFF4
07FFE0
1FAAA4
7F15BC
FF3FFD
FF3FFE
FF00BE
FF3FFE
FF3FFE
FF2ABE
FF55BE
FFFFFE
BFFFFD
7FFFF8
0BFFD0
ENDCHAR
STARTCHAR edotaccent
ENCODING 279
SWIDTH 578 0
DWIDTH 12 0
BBX 12 19 0 0
BITMAP
01AA00
0BFFD0
1FFFF0
2FCBF0
1FFFF0
0BFFD0
1EAAE4
7C55BC
FCFE7D
FCA97E
FC55BE
FCFFFE
FCFFFE
FD14FE
FFAAFE
FFFFFE
BFFFFD
7FFFF8
0BFFD0
ENDCHAR
STARTCHAR Eogonek
ENCODING 280
SWIDTH 578 0
DWIDTH 12 0
BBX 12 14 0 0
BITMAP
015540
1FAAA4
7F15BC
FF3FFD
FF3FFE
FF00BE
FF3FFE
FF3FFE
FF2ABE
FF557E
FFFDFE
BFF9FD
7FFD78
0BFFD0
ENDCHAR
STARTCHAR eogonek
ENCODING 281
SWIDTH 578 0
DWIDTH 12 0
BBX 12 14 0 0
BITMAP
015540
1EAAE4
7C55BC
FCFE7D
FCA97E
FC55BE
FCFFFE
FCFFFE
FD14FE
FFA6FE
FFDBFE
BFD7FD
7FFBF8
0BFFD0
ENDCHAR
STARTCHAR Ecaron
ENCODING 282
SWIDTH 578 0
DWIDTH 12 0
BBX 12 19 0 0
BITMAP
005140
03FFE0
07ADF0
03D9E0
02E7E0
02FFD0
1FFFE4
7F15BC
FF3FFD
FF3FFE
FF00BE
FF3FFE
FF3FFE
FF2ABE
FF55BE
FFFFFE
BFFFFD
7FFFF8
0BFFD0
ENDCHAR
STARTCHAR ecaron
ENCODING 283
SWIDTH 578 0
DWIDTH 12 0
BBX 12 19 0 0
BITMAP
019640
0BFFC0
0B7AD0
0BA7D0
07D7C0
03FFC0
1FFFE4
7C55BC
FCFE7D
FCA97E
FC55BE
FCFFFE
FCFFFE
FD14FE
FFAAFE
FFFFFE
BFFFFD
7FFFF8
0BFFD0
ENDCHAR
STARTCHAR Gcircumflex
ENCODING 284
SWIDTH 578 0
DWIDTH 12 0
BBX 12 19 0 0
BITMAP
00BE00
01FF40
02D780
07D7C0
0B6AD0
0BFFE0
1FFFF4
7D55BC
FDBFFD
FDBFFE
FDB97E
FDBA2E
FDBF6E
FD6A2E
FF95BE
FFFFFE
BFFFFD
7FFFF8
0BFFD0
ENDCHAR
STARTCHAR gcircumflex
ENCODING 285
SWIDTH 578 0
DWIDTH 12 0
BBX 12 19 0 0
BITMAP
00BE00
01FF40
02D780
07D7C0
0B6AD0
0BFFE0
1FFFF4
7D55BC
FDBFFD
FDBFFE
FDB97E
FDBA2E
FDBF6E
FD6A2E
FF95BE
FFFFFE
BFFFFD
7FFFF8
0BFFD0
ENDCHAR
STARTCHAR Gbreve
ENCODING 286
SWIDTH 578 0
DWIDTH 12 0
BBX 12 19 0 0
BITMAP
01AA40
0BFFE0
1FFFF0
1F69F4
0F96F0
07FFD0
1FAAA4
7D55BC
FDBFFD
FDBFFE
FDB97E
FDBA2E
FDBF6E
FD6A2E
FF95BE
FFFFFE
BFFFFD
7FFFF8
0BFFD0
ENDCHAR
STARTCHAR gbreve
ENCODING 287
SWIDTH 578 0
DWIDTH 12 0
BBX 12 19 0 0
BITMAP
01AA00
0BFFD0
1FFFF0
2F79F0
1F97E0
0BFFC0
1FAAA4
7D55BC
FDBFFD
FDBFFE
FDB97E
FDBA2E
FDBF6E
FD6A2E
FF95BE
FFFFFE
BFFFFD
7FFFF8
0BFFD0
ENDCHAR
STARTCHAR Gdotaccent
ENCODING 288
SWIDTH 578 0
DWIDTH 12 0
BBX 12 19 0 0
BITMAP
01AA00
0BFFD0
1FFFF0
2FCBF0
1FFFF0
0BFFD0
1FAAA4
7D55BC
FDBFFD
FDBFFE
FDB97E
FDBA2E
FDBF6E
FD6A2E
FF95BE
FFFFFE
BFFFFD
7FFFF8
0BFFD0
ENDCHAR
STARTCHAR gdotaccent
ENCODING 289
SWIDTH 578 0
DWIDTH 12 0
BBX 12 19 0 0
BITMAP
01AA00
0BFFD0
1FFFF0
2FCBF0
1FFFF0
0BFFD0
1FAAA4
7D55BC
FDBFFD
FDBFFE
FDB97E
FDBA2E
FDBF6E
FD6A2E
FF95BE
FFFFFE
BFFFFD
7FFFF8
0BFFD0
ENDCHAR
STARTCHAR Gcommaaccent
ENCODING 290
SWIDTH 578 0
DWIDTH 12 0
BBX 12 14 0 0
BITMAP
015540
1FAAA4
7D55BC
FDBFFD
FDBFFE
FDB97E
FDBA2E
FDBF6E
FD6A2E
FF95BE
FFE7FE
BFE3FD
7FF7F8
0BFFD0
ENDCHAR
STARTCHAR gcommaaccent
ENCODING 291
SWIDTH 578 0
DWIDTH 12 0
BBX 12 14 0 0
BITMAP
015540
1FAAA4
7D55BC
FDBFFD
FDBFFE
FDB97E
FDBA2E
FDBF6E
FD6A2E
FF95BE
FFE7FE
BFE3FD
7FF7F8
0BFFD0
ENDCHAR
STARTCHAR Hcircumflex
ENCODING 292
SWIDTH 578 0
DWIDTH 12 0
BBX 12 19 0 0
BITMAP
00BE00
01FF40
02D780
03D7D0
07A9E0
0BFFE0
1FFFE4
7DBF6C
FDBF6D
FDBF6E
FD002E
FDBF6E
FDBF6E
FDBF6E
FEFFAE
FFFFFE
BFFFFD
7FFFF8
0BFFD0
ENDCHAR
STARTCHAR hcircumflex
ENCODING 293
SWIDTH 578 0
DWIDTH 12 0
BBX 12 19 0 0
BITMAP
00BE00
01FF40
02D7C0
03DAD0
07ADE0
0BFFE0
1FFFE4
7DBF6C
FDBF6D
FDBF6E
FD002E
FDBF6E
FDBF6E
FDBF6E
FEFFAE
FFFFFE
BFFFFD
7FFFF8
0BFFD0
ENDCHAR
STARTCHAR Hbar
ENCODING 294
SWIDTH 578 0
DWIDTH 12 0
BBX 12 19 0 0
BITMAP
01AA40
0BFFE0
1FFFF0
1F01F4
0FFFF0
07FFD0
1EFFA4
7DBF6C
FDBF6D
FDBF6E
FD002E
FDBF6E
FDBF6E
FDBF6E
FEFFAE
FFFFFE
BFFFFD
7FFFF8
0BFFD0
ENDCHAR
STARTCHAR hbar
ENCODING 295
SWIDTH 578 0
DWIDTH 12 0
BBX 12 14 0 0
BITMAP
015540
1EFFA4
7CAA6C
FC551D
FDBF6E
FD002E
FDBF6E
FDBF6E
FDBF6E
FEFFAE
FFFFFE
BFFFFD
7FFFF8
0BFFD0
ENDCHAR
STARTCHAR Itilde
ENCODING 296
SWIDTH 578 0
DWIDTH 12 0
BBX 12 20 0 0
BITMAP
001500
01FFD0
07FFF4
0FFFF8
0F99B8
0B65F4
07FFE0
1EAAA4
7E517C
FFE3FD
FFE3FE
FFE3FE
FFE3FE
FFE3FE
FE92BE
FE557E
FFFFFE
BFFFFD
7FFFF8
0BFFD0
ENDCHAR
STARTCHAR itilde
ENCODING 297
SWIDTH 578 0
DWIDTH 12 0
BBX 12 20 0 0
BITMAP
001500
02FFD0
07FFF0
0FFFF8
0F99B8
0B65F4
07FFE0
1EAAA4
7E517C
FFE3FD
FFE3FE
FFE3FE
FFE3FE
FFE3FE
FE92BE
FE557E
FFFFFE
BFFFFD
7FFFF8
0BFFD0
ENDCHAR
STARTCHAR Imacron
ENCODING 298
SWIDTH 578 0
DWIDTH 12 0
BBX 12 19 0 0
BITMAP
00AA40
07FFE0
0FFFF4
0F40F8
0BFFF4
07FFD0
1EAAA4
7E517C
FFE3FD
FFE3FE
FFE3FE
FFE3FE
FFE3FE
FE92BE
FE557E
FFFFFE
BFFFFD
7FFFF8
0BFFD0
ENDCHAR
STARTCHAR imacron
ENCODING 299
SWIDTH 578 0
DWIDTH 12 0
BBX 12 19 0 0
BITMAP
00AA40
07FFE0
0FFFF4
0F40F4
0BFFF4
07FFD0
1EAAA4
7E517C
FFE3FD
FFE3FE
FFE3FE
FFE3FE
FFE3FE
FE92BE
FE557E
FFFFFE
BFFFFD
7FFFF8
0BFFD0
ENDCHAR
STARTCHAR Ibreve
ENCODING 300
SWIDTH 578 0
DWIDTH 12 0
BBX 12 19 0 0
BITMAP
00AA40
07FFF0
0BFFF8
0F9DF8
0BD5F4
03FFE0
1EAAA4
7E517C
FFE3FD
FFE3FE
FFE3FE
FFE3FE
FFE3FE
FE92BE
FE557E
FFFFFE
BFFFFD
7FFFF8
0BFFD0
ENDCHAR
STARTCHAR ibreve
ENCODING 301
SWIDTH 578 0
DWIDTH 12 0
BBX 12 19 0 0
BITMAP
00AA40
07FFE0
0FFFF4
0F9DF8
0BD6F4
07FFE0
1EAAA4
7E517C
FFE3FD
FFE3FE
FFE3FE
FFE3FE
FFE3FE
FE92BE
FE557E
FFFFFE
BFFFFD
7FFFF8
0BFFD0
ENDCHAR
STARTCHAR Iogonek
ENCODING 302
SWIDTH 578 0
DWIDTH 12 0
BBX 12 14 0 0
BITMAP
015540
1EAAA4
7E517C
FFE3FD
FFE3FE
FFE3FE
FFE3FE
FFE3FE
FE92BE
FE553E
FFFDBE
BFFCBD
7FFE78
0BFFD0
ENDCHAR
STARTCHAR iogonek
ENCODING 303
SWIDTH 578 0
DWIDTH 12 0
BBX 12 14 0 0
BITMAP
015540
1EAAA4
7E517C
FFE3FD
FFE3FE
FFE3FE
FFE3FE
FFE3FE
FE92BE
FE553E
FFFDBE
BFFCBD
7FFE78
0BFFD0
ENDCHAR
STARTCHAR Idotaccent
ENCODING 304
SWIDTH 578 0
DWIDTH 12 0
BBX 12 19 0 0
BITMAP
01AA40
0BFFE0
1FFFF0
1FD7F4
0FFFF0
0BFFE0
1EAAA4
7E517C
FFE3FD
FFE3FE
FFE3FE
FFE3FE
FFE3FE
FE92BE
FE557E
FFFFFE
BFFFFD
7FFFF8
0BFFD0
ENDCHAR
STARTCHAR dotlessi
ENCODING 305
SWIDTH 578 0
DWIDTH 12 0
BBX 12 14 0 0
BITMAP
015540
1EAAA4
7E517C
FFE3FD
FFE3FE
FFE3FE
FFE3FE
FFE3FE
FE92BE
FE557E
FFFFFE
BFFFFD
7FFFF8
0BFFD0
ENDCHAR
STARTCHAR IJ
ENCODING 306
SWIDTH 578 0
DWIDTH 12 0
BBX 12 14 0 0
BITMAP
015540
16AF94
746F9C
FDBF9D
FDBF9E
FDBF9E
FDBF9E
FDBF9E
F86A5E
F569BE
FFFFFE
BFFFFD
7FFFF8
0BFFD0
ENDCHAR
STARTCHAR ij
ENCODING 307
SWIDTH 578 0
DWIDTH 12 0
BBX 12 14 0 0
BITMAP
015540
16AF94
746F9C
FDBF9D
FDBF9E
FDBF9E
FDBF9E
FDBF9E
F86A5E
F569BE
FFFFFE
BFFFFD
7FFFF8
0BFFD0
ENDCHAR
STARTCHAR Jcircumflex
ENCODING 308
SWIDTH 578 0
DWIDTH 12 0
BBX 12 19 0 0
BITMAP
007E00
00FF80
02D7C0
03DAD0
07ADE0
07FFE0
1FFFF4
7FF9FC
FFF9FD
FFF9FE
FFF9FE
FFF9FE
FFF9FE
FFA5FE
FF9BFE
FFFFFE
BFFFFD
7FFFF8
0BFFD0
ENDCHAR
STARTCHAR jcircumflex
ENCODING 309
SWIDTH 578 0
DWIDTH 12 0
BBX 12 19 0 0
BITMAP
007E00
00FF80
02D7C0
03DAD0
07ADE0
07FFE0
1FFFF4
7FF9FC
FFF9FD
FFF9FE
FFF9FE
FFF9FE
FFF9FE
FFA5FE
FF9BFE
FFFFFE
BFFFFD
7FFFF8
0BFFD0
ENDCHAR
STARTCHAR Kcommaaccent
ENCODING 310
SWIDTH 578 0
DWIDTH 12 0
BBX 12 14 0 0
BITMAP
015540
1FBFA4
7F3E2C
FF38BD
FF22FE
FF07FE
FF22FE
FF38BE
FF3E2E
FF7FAE
FFE7FE
BFE3FD
7FF7F8
0BFFD0
ENDCHAR
STARTCHAR kcommaaccent
ENCODING 311
SWIDTH 578 0
DWIDTH 12 0
BBX 12 14 0 0
BITMAP
015540
1FBFA4
7F3E2C
FF38BD
FF22FE
FF07FE
FF22FE
FF38BE
FF3E2E
FF7FAE
FFE7FE
BFE3FD
7FF7F8
0BFFD0
ENDCHAR
STARTCHAR kgreenlandic
ENCODING 312
SWIDTH 578 0
DWIDTH 12 0
BBX 12 14 0 0
BITMAP
015540
1FBFA4
7F3E2C
FF38BD
FF22FE
FF07FE
FF22FE
FF38BE
FF3E2E
FF7FAE
FFFFFE
BFFFFD
7FFFF8
0BFFD0
ENDCHAR
STARTCHAR Lacute
ENCODING 313
SWIDTH 578 0
DWIDTH 12 0
BBX 12 20 0 0
BITMAP
006900
01FF80
02D7C0
03CF40
079F00
07FD00
03FD40
1FAFE4
7F6FFC
FF6FFD
FF6FFE
FF6FFE
FF6FFE
FF6FFE
FF5ABE
FF95BE
FFFFFE
BFFFFD
7FFFF8
0BFFD0
ENDCHAR
STARTCHAR lacute
ENCODING 314
SWIDTH 578 0
DWIDTH 12 0
BBX 12 20 0 0
BITMAP
006900
01FF80
02D7C0
03CF40
079F00
07FD00
03FD40
1FAFE4
7F6FFC
FF6FFD
FF6FFE
FF6FFE
FF6FFE
FF6FFE
FF5ABE
FF95BE
FFFFFE
BFFFFD
7FFFF8
0BFFD0
ENDCHAR
STARTCHAR Lcommaaccent
ENCODING 315
SWIDTH 578 0
DWIDTH 12 0
BBX 12 14 0 0
BITMAP
015540
1FAFE4
7F6FFC
FF6FFD
FF6FFE
FF6FFE
FF6FFE
FF6FFE
FF5ABE
FF95BE
FFE7FE
BFE3FD
7FF7F8
0BFFD0
ENDCHAR
STARTCHAR lcommaaccent
ENCODING 316
SWIDTH 578 0
DWIDTH 12 0
BBX 12 14 0 0
BITMAP
015540
1FAFE4
7F6FFC
FF6FFD
FF6FFE
FF6FFE
FF6FFE
FF6FFE
FF5ABE
FF95BE
FFE7FE
BFE3FD
7FF7F8
0BFFD0
ENDCHAR
STARTCHAR Lcaron
ENCODING 317
SWIDTH 578 0
DWIDTH 12 0
BBX 12 14 0 0
BITMAP
015540
1FAEE4
7F68BC
FF6DFD
FF6FFE
FF6FFE
FF6FFE
FF6FFE
FF5ABE
FF95BE
FFFFFE
BFFFFD
7FFFF8
0BFFD0
ENDCHAR
STARTCHAR lcaron
ENCODING 318
SWIDTH 578 0
DWIDTH 12 0
BBX 12 14 0 0
BITMAP
015540
1FAEE4
7F68BC
FF6DFD
FF6FFE
FF6FFE
FF6FFE
FF6FFE
FF5ABE
FF95BE
FFFFFE
BFFFFD
7FFFF8
0BFFD0
ENDCHAR
STARTCHAR Ldot
ENCODING 319
SWIDTH 578 0
DWIDTH 12 0
BBX 12 14 0 0
BITMAP
015540
1FAFE4
7F6FFC
FF6FFD
FF65FE
FF6FFE
FF6FFE
FF6FFE
FF5ABE
FF95BE
FFFFFE
BFFFFD
7FFFF8
0BFFD0
ENDCHAR
STARTCHAR ldot
ENCODING 320
SWIDTH 578 0
DWIDTH 12 0
BBX 12 14 0 0
BITMAP
015540
1FAFE4
7F6FFC
FF6FFD
FF65FE
FF6FFE
FF6FFE
FF6FFE
FF5ABE
FF95BE
FFFFFE
BFFFFD
7FFFF8
0BFFD0
ENDCHAR
STARTCHAR Lslash
ENCODING 321
SWIDTH 578 0
DWIDTH 12 0
BBX 12 14 0 0
BITMAP
015540
1FAFE4
7F6FFC
FF6FFD
FF5BFE
FE2FFE
FF6FFE
FF6FFE
FF5ABE
FF95BE
FFFFFE
BFFFFD
7FFFF8
0BFFD0
ENDCHAR
STARTCHAR lslash
ENCODING 322
SWIDTH 578 0
DWIDTH 12 0
BBX 12 14 0 0
BITMAP
015540
1FAFE4
7F6FFC
FF6FFD
FF5BFE
FE2FFE
FF6FFE
FF6FFE
FF5ABE
FF95BE
FFFFFE
BFFFFD
7FFFF8
0BFFD0
ENDCHAR
STARTCHAR Nacute
ENCODING 323
SWIDTH 578 0
DWIDTH 12 0
BBX 12 20 0 0
BITMAP
001A40
007FD0
00F6E0
00F3D0
01EB80
01FF40
01FF40
1EAAA4
7C553C
FCBF3D
FCBF3E
FCBF3E
FCBF3E
FCBF3E
FCBF3E
FEFF7E
FFFFFE
BFFFFD
7FFFF8
0BFFD0
ENDCHAR
STARTCHAR nacute
ENCODING 324
SWIDTH 578 0
DWIDTH 12 0
BBX 12 20 0 0
BITMAP
001A40
007FD0
00F6E0
00F3D0
01EB80
01FF40
01FF40
1EAAA4
7C553C
FCBF3D
FCBF3E
FCBF3E
FCBF3E
FCBF3E
FCBF3E
FEFF7E
FFFFFE
BFFFFD
7FFFF8
0BFFD0
ENDCHAR
STARTCHAR Ncommaaccent
ENCODING 325
SWIDTH 578 0
DWIDTH 12 0
BBX 12 14 0 0
BITMAP
015540
1EAAA4
7C553C
FCBF3D
FCBF3E
FCBF3E
FCBF3E
FCBF3E
FCBF3E
FEFF7E
FFE7FE
BFE3FD
7FF7F8
0BFFD0
ENDCHAR
STARTCHAR ncommaaccent
ENCODING 326
SWIDTH 578 0
DWIDTH 12 0
BBX 12 14 0 0
BITMAP
015540
1EAAA4
7C553C
FCBF3D
FCBF3E
FCBF3E
FCBF3E
FCBF3E
FCBF3E
FEFF7E
FFE7FE
BFE3FD
7FF7F8
0BFFD0
ENDCHAR
STARTCHAR Ncaron
ENCODING 327
SWIDTH 578 0
DWIDTH 12 0
BBX 12 19 0 0
BITMAP
019640
0BFFC0
0B7AD0
0BA7D0
07D7C0
03FFC0
1FFFE4
7C553C
FCBF3D
FCBF3E
FCBF3E
FCBF3E
FCBF3E
FCBF3E
FEFF7E
FFFFFE
BFFFFD
7FFFF8
0BFFD0
ENDCHAR
STARTCHAR ncaron
ENCODING 328
SWIDTH 578 0
DWIDTH 12 0
BBX 12 19 0 0
BITMAP
019640
0BFFC0
0B7AD0
0BA7D0
07D7C0
03FFC0
1FFFE4
7C553C
FCBF3D
FCBF3E
FCBF3E
FCBF3E
FCBF3E
FCBF3E
FEFF7E
FFFFFE
BFFFFD
7FFFF8
0BFFD0
ENDCHAR
STARTCHAR napostrophe
ENCODING 329
SWIDTH 578 0
DWIDTH 12 0
BBX 12 14 0 0
BITMAP
015540
1EAAA4
58553C
D8BF3D
ECBF3E
FCBF3E
FCBF3E
FCBF3E
FCBF3E
FEFF7E
FFFFFE
BFFFFD
7FFFF8
0BFFD0
ENDCHAR
STARTCHAR Eng
ENCODING 330
SWIDTH 578 0
DWIDTH 12 0
BBX 12 14 0 0
BITMAP
015540
1EAAA4
7C553C
FCBF3D
FCBF3E
FCBF3E
FCBF3E
FCBF3E
FCBF3E
FEFF3E
FFFF3E
BFF53D
7FFAF8
0BFFD0
ENDCHAR
STARTCHAR eng
ENCODING 331
SWIDTH 578 0
DWIDTH 12 0
BBX 12 14 0 0
BITMAP
015540
1EAAA4
7C553C
FCBF3D
FCBF3E
FCBF3E
FCBF3E
FCBF3E
FCBF3E
FEFF3E
FFFF3E
BFF53D
7FFAF8
0BFFD0
ENDCHAR
STARTCHAR Omacron
ENCODING 332
SWIDTH 578 0
DWIDTH 12 0
BBX 12 19 0 0
BITMAP
00AA40
07FFE0
0FFFF4
0F40F8
0BFFF4
07FFD0
1FAAA4
7D552C
FDBF6D
FDBF6E
FDBF6E
FDBF6E
FDBF6E
FD6A2E
FF55BE
FFFFFE
BFFFFD
7FFFF8
0BFFD0
ENDCHAR
STARTCHAR omacron
ENCODING 333
SWIDTH 578 0
DWIDTH 12 0
BBX 12 19 0 0
BITMAP
00AA40
07FFE0
0FFFF4
0F40F8
0BFFF4
07FFD0
1FAAA4
7D552C
FDBF6D
FDBF6E
FDBF6E
FDBF6E
FDBF6E
FD6A2E
FF55BE
FFFFFE
BFFFFD
7FFFF8
0BFFD0
ENDCHAR
STARTCHAR Obreve
ENCODING 334
SWIDTH 578 0
DWIDTH 12 0
BBX 12 19 0 0
BITMAP
00AA40
07FFE0
0FFFF4
0FA9F8
0BD6F4
07FFD0
1FAAA4
7D552C
FDBF6D
FDBF6E
FDBF6E
FDBF6E
FDBF6E
FD6A2E
FF55BE
FFFFFE
BFFFFD
7FFFF8
0BFFD0
ENDCHAR
STARTCHAR obreve
ENCODING 335
SWIDTH 578 0
DWIDTH 12 0
BBX 12 19 0 0
BITMAP
00AA40
07FFE0
0FFFF4
0FA9F8
0BD6F4
07FFD0
1FAAA4
7D552C
FDBF6D
FDBF6E
FDBF6E
FDBF6E
FDBF6E
FD6A2E
FF55BE
FFFFFE
BFFFFD
7FFFF8
0BFFD0
ENDCHAR
STARTCHAR Ohungarumlaut
ENCODING 336
SWIDTH 578 0
DWIDTH 12 0
BBX 12 19 0 0
BITMAP
001BB4
003FF8
00BA9D
01F77D
02EEB8
03FFF0
1FFFF4
7D552C
FDBF6D
FDBF6E
FDBF6E
FDBF6E
FDBF6E
FD6A2E
FF55BE
FFFFFE
BFFFFD
7FFFF8
0BFFD0
ENDCHAR
STARTCHAR ohungarumlaut
ENCODING 337
SWIDTH 578 0
DWIDTH 12 0
BBX 12 19 0 0
BITMAP
001BB4
003FF8
00BA9D
01F77D
02EEB8
03FFF0
1FFFF4
7D552C
FDBF6D
FDBF6E
FDBF6E
FDBF6E
FDBF6E
FD6A2E
FF55BE
FFFFFE
BFFFFD
7FFFF8
0BFFD0
ENDCHAR
STARTCHAR OE
ENCODING 338
SWIDTH 578 0
DWIDTH 12 0
BBX 12 14 0 0
BITMAP
015540
1EAAA4
75516C
F6E7FD
F6E7FE
F6E03E
F6E7FE
F6E7FE
F592AE
FD596E
FFFFFE
BFFFFD
7FFFF8
0BFFD0
ENDCHAR
STARTCHAR oe
ENCODING 339
SWIDTH 578 0
DWIDTH 12 0
BBX 12 14 0 0
BITMAP
015540
1EAAA4
75516C
F6E7FD
F6E7FE
F6E03E
F6E7FE
F6E7FE
F592AE
FD596E
FFFFFE
BFFFFD
7FFFF8
0BFFD0
ENDCHAR
STARTCHAR Racute
ENCODING 340
SWIDTH 578 0
DWIDTH 12 0
BBX 12 19 0 0
BITMAP
001A40
007FD0
00F6E0
00F3D0
01EB80
02FF40
1EFFE4
7D557C
FDBE7D
FDBE7E
FD15FE
FD697E
FDBE7E
FDBE7E
FEBFBE
FFFFFE
BFFFFD
7FFFF8
0BFFD0
ENDCHAR
STARTCHAR racute
ENCODING 341
SWIDTH 578 0
DWIDTH 12 0
BBX 12 19 0 0
BITMAP
001A40
007FD0
00F6E0
00F3D0
01EB80
02FF40
1EFFE4
7D557C
FDBE7D
FDBE7E
FD15FE
FD697E
FDBE7E
FDBE7E
FEBFBE
FFFFFE
BFFFFD
7FFFF8
0BFFD0
ENDCHAR
STARTCHAR Rcommaaccent
ENCODING 342
SWIDTH 578 0
DWIDTH 12 0
BBX 12 14 0 0
BITMAP
015540
1EAAE4
7D557C
FDBE7D
FDBE7E
FD15FE
FD697E
FDBE7E
FDBE7E
FEBFBE
FFE7FE
BFE3FD
7FF7F8
0BFFD0
ENDCHAR
STARTCHAR rcommaaccent
ENCODING 343
SWIDTH 578 0
DWIDTH 12 0
BBX 12 14 0 0
BITMAP
015540
1EAAE4
7D557C
FDBE7D
FDBE7E
FD15FE
FD697E
FDBE7E
FDBE7E
FEBFBE
FFE7FE
BFE3FD
7FF7F8
0BFFD0
ENDCHAR
STARTCHAR Rcaron
ENCODING 344
SWIDTH 578 0
DWIDTH 12 0
BBX 12 19 0 0
BITMAP
019640
0BFFC0
0B7AD0
0BA7D0
07D7C0
03FFC0
1FFFE4
7D557C
FDBE7D
FDBE7E
FD15FE
FD697E
FDBE7E
FDBE7E
FEBFBE
FFFFFE
BFFFFD
7FFFF8
0BFFD0
ENDCHAR
STARTCHAR rcaron
ENCODING 345
SWIDTH 578 0
DWIDTH 12 0
BBX 12 19 0 0
BITMAP
019640
0BFFC0
0B7AD0
0BA7D0
07D7C0
03FFC0
1FFFE4
7D557C
FDBE7D
FDBE7E
FD15FE
FD697E
FDBE7E
FDBE7E
FEBFBE
FFFFFE
BFFFFD
7FFFF8
0BFFD0
ENDCHAR
STARTCHAR Sacute
ENCODING 346
SWIDTH 578 0
DWIDTH 12 0
BBX 12 19 0 0
BITMAP
001A80
003FF0
0079F0
00B6E0
00F7C0
01FF80
1FFFA4
7E55BC
FDBFFD
FD7FFE
FE007E
FFFF3E
FFFF3E
FF693E
FF55BE
FFFFFE
BFFFFD
7FFFF8
0BFFD0
ENDCHAR
STARTCHAR sacute
ENCODING 347
SWIDTH 578 0
DWIDTH 12 0
BBX 12 19 0 0
BITMAP
001A80
003FF0
0079F0
00B6E0
00F7C0
01FF80
1FFFA4
7E55BC
FDBFFD
FD7FFE
FE007E
FFFF3E
FFFF3E
FF693E
FF55BE
FFFFFE
BFFFFD
7FFFF8
0BFFD0
ENDCHAR
STARTCHAR Scircumflex
ENCODING 348
SWIDTH 578 0
DWIDTH 12 0
BBX 12 19 0 0
BITMAP
007F00
00FB80
01E7C0
03DAE0
03DDE0
07FFF0
1FFFF4
7E55BC
FDBFFD
FD7FFE
FE007E
FFFF3E
FFFF3E
FF693E
FF55BE
FFFFFE
BFFFFD
7FFFF8
0BFFD0
ENDCHAR
STARTCHAR scircumflex
ENCODING 349
SWIDTH 578 0
DWIDTH 12 0
BBX 12 19 0 0
BITMAP
007F00
00FB80
01E7C0
03DAE0
03DDE0
07FFF0
1FFFF4
7E55BC
FDBFFD
FD7FFE
FE007E
FFFF3E
FFFF3E
FF693E
FF55BE
FFFFFE
BFFFFD
7FFFF8
0BFFD0
ENDCHAR
STARTCHAR Scedilla
ENCODING 350
SWIDTH 578 0
DWIDTH 12 0
BBX 12 14 0 0
BITMAP
015540
1FAAA4
7E55BC
FDBFFD
FD7FFE
FE007E
FFFF3E
FFFF3E
FF693E
FF51BE
FFC7FE
BF9FFD
7FD7F8
0BFFD0
ENDCHAR
STARTCHAR scedilla
ENCODING 351
SWIDTH 578 0
DWIDTH 12 0
BBX 12 14 0 0
BITMAP
015540
1FAAA4
7E55BC
FDBFFD
FD7FFE
FE007E
FFFF3E
FFFF3E
FF693E
FF51BE
FFC7FE
BF9FFD
7FD7F8
0BFFD0
ENDCHAR
STARTCHAR Scaron
ENCODING 352
SWIDTH 578 0
DWIDTH 12 0
BBX 12 19 0 0
BITMAP
005140
03FFE0
03DDF0
03DDF0
02E6E0
02FFD0
1FFFE4
7E55BC
FDBFFD
FD7FFE
FE007E
FFFF3E
FFFF3E
FF693E
FF55BE
FFFFFE
BFFFFD
7FFFF8
0BFFD0
ENDCHAR
STARTCHAR scaron
ENCODING 353
SWIDTH 578 0
DWIDTH 12 0
BBX 12 19 0 0
BITMAP
005140
03FFE0
03DDF0
03DDF0
02E6E0
02FFD0
1FFFE4
7E55BC
FDBFFD
FD7FFE
FE007E
FFFF3E
FFFF3E
FF693E
FF55BE
FFFFFE
BFFFFD
7FFFF8
0BFFD0
ENDCHAR
STARTCHAR Tcommaaccent
ENCODING 354
SWIDTH 578 0
DWIDTH 12 0
BBX 12 14 0 0
BITMAP
015540
1EAAA4
7E517C
FFE3FD
FFE3FE
FFE3FE
FFE3FE
FFE3FE
FFE3FE
FFFBFE
FFE7FE
BFE3FD
7FF7F8
0BFFD0
ENDCHAR
STARTCHAR tcommaaccent
ENCODING 355
SWIDTH 578 0
DWIDTH 12 0
BBX 12 14 0 0
BITMAP
015540
1EAAA4
7E517C
FFE3FD
FFE3FE
FFE3FE
FFE3FE
FFE3FE
FFE3FE
FFFBFE
FFE7FE
BFE3FD
7FF7F8
0BFFD0
ENDCHAR
STARTCHAR Tcaron
ENCODING 356
SWIDTH 578 0
DWIDTH 12 0
BBX 12 19 0 0
BITMAP
015640
07FFE0
07ADE0
07DAE0
03D7D0
03FFC0
1FFFE4
7E517C
FFE3FD
FFE3FE
FFE3FE
FFE3FE
FFE3FE
FFE3FE
FFFBFE
FFFFFE
BFFFFD
7FFFF8
0BFFD0
ENDCHAR
STARTCHAR tcaron
ENCODING 357
SWIDTH 578 0
DWIDTH 12 0
BBX 12 14 0 0
BITMAP
015540
1EAAA4
7E517C
FFE23D
FFE33E
FFE3BE
FFE3FE
FFE3FE
FFE3FE
FFFBFE
FFFFFE
BFFFFD
7FFFF8
0BFFD0
ENDCHAR
STARTCHAR Tbar
ENCODING 358
SWIDTH 578 0
DWIDTH 12 0
BBX 12 14 0 0
BITMAP
015540
1EAAA4
7E517C
FFE3FD
FFE3FE
FF91FE
FFE3FE
FFE3FE
FFE3FE
FFFBFE
FFFFFE
BFFFFD
7FFFF8
0BFFD0
ENDCHAR
STARTCHAR tbar
ENCODING 359
SWIDTH 578 0
DWIDTH 12 0
BBX 12 14 0 0
BITMAP
015540
1EAAA4
7E517C
FFE3FD
FFE3FE
FF91FE
FFE3FE
FFE3FE
FFE3FE
FFFBFE
FFFFFE
BFFFFD
7FFFF8
0BFFD0
ENDCHAR
STARTCHAR Utilde
ENCODING 360
SWIDTH 578 0
DWIDTH 12 0
BBX 12 20 0 0
BITMAP
001500
02FFD0
07FFF0
0FFFF4
0F99B8
0B65F4
07FFE0
1EFFA4
7CFF6C
FCFF6D
FCFF6E
FCFF6E
FCFF6E
FCFF6E
FD6A3E
FF55BE
FFFFFE
BFFFFD
7FFFF8
0BFFD0
ENDCHAR
STARTCHAR utilde
ENCODING 361
SWIDTH 578 0
DWIDTH 12 0
BBX 12 20 0 0
BITMAP
001500
02FFD0
07FFF0
0FFFF8
0F99B8
0B65F4
07FFE0
1EFFA4
7CFF6C
FCFF6D
FCFF6E
FCFF6E
FCFF6E
FCFF6E
FD6A3E
FF55BE
FFFFFE
BFFFFD
7FFFF8
0BFFD0
ENDCHAR
STARTCHAR Umacron
ENCODING 362
SWIDTH 578 0
DWIDTH 12 0
BBX 12 19 0 0
BITMAP
00AA40
07FFE0
0FFFF4
0F40F8
0BFFF4
07FFE0
1EFFA4
7CFF6C
FCFF6D
FCFF6E
FCFF6E
FCFF6E
FCFF6E
FD6A3E
FF55BE
FFFFFE
BFFFFD
7FFFF8
0BFFD0
ENDCHAR
STARTCHAR umacron
ENCODING 363
SWIDTH 578 0
DWIDTH 12 0
BBX 12 19 0 0
BITMAP
00AA40
07FFE0
0FFFF4
0F40F8
0BFFF4
07FFE0
1EFFA4
7CFF6C
FCFF6D
FCFF6E
FCFF6E
FCFF6E
FCFF6E
FD6A3E
FF55BE
FFFFFE
BFFFFD
7FFFF8
0BFFD0
ENDCHAR
STARTCHAR Ubreve
ENCODING 364
SWIDTH 578 0
DWIDTH 12 0
BBX 12 19 0 0
BITMAP
00AA40
07FFE0
0FFFF4
0F9DF8
0BD6F4
07FFE0
1EFFA4
7CFF6C
FCFF6D
FCFF6E
FCFF6E
FCFF6E
FCFF6E
FD6A3E
FF55BE
FFFFFE
BFFFFD
7FFFF8
0BFFD0
ENDCHAR
STARTCHAR ubreve
ENCODING 365
SWIDTH 578 0
DWIDTH 12 0
BBX 12 19 0 0
BITMAP
00AA40
07FFE0
0FFFF4
0F9DF8
0BD6F4
07FFE0
1EFFA4
7CFF6C
FCFF6D
FCFF6E
FCFF6E
FCFF6E
FCFF6E
FD6A3E
FF55BE
FFFFFE
BFFFFD
7FFFF8
0BFFD0
ENDCHAR
STARTCHAR Uring
ENCODING 366
SWIDTH 578 0
DWIDTH 12 0
BBX 12 20 0 0
BITMAP
000400
00BF40
03EBD0
0799E0
0BADF0
07D6E0
03FFD0
1EFFA4
7CFF6C
FCFF6D
FCFF6E
FCFF6E
FCFF6E
FCFF6E
FD6A3E
FF55BE
FFFFFE
BFFFFD
7FFFF8
0BFFD0
ENDCHAR
STARTCHAR uring
ENCODING 367
SWIDTH 578 0
DWIDTH 12 0
BBX 12 20 0 0
BITMAP
000400
00BF40
03EBD0
0799E0
0BADF0
07D6E0
03FFD0
1EFFA4
7CFF6C
FCFF6D
FCFF6E
FCFF6E
FCFF6E
FCFF6E
FD6A3E
FF55BE
FFFFFE
BFFFFD
7FFFF8
0BFFD0
ENDCHAR
STARTCHAR Uhungarumlaut
ENCODING 368
SWIDTH 581 0
DWIDTH 12 0
BBX 12 19 0 0
BITMAP
001BB4
003FFC
00BA9D
00F77D
02EEB8
03FFF0
1FFFF4
7CFF6C
FCFF6D
FCFF6E
FCFF6E
FCFF6E
FCFF6E
FD6A3E
FF55BE
FFFFFE
BFFFFD
7FFFF8
0BFFD0
ENDCHAR
STARTCHAR uhungarumlaut
ENCODING 369
SWIDTH 582 0
DWIDTH 12 0
BBX 12 19 0 0
BITMAP
001BB4
003FFC
00BADD
00F77D
02EEB8
03FFF0
1FFFF4
7CFF6C
FCFF6D
FCFF6E
FCFF6E
FCFF6E
FCFF6E
FD6A3E
FF55BE
FFFFFE
BFFFFD
7FFFF8
0BFFD0
ENDCHAR
STARTCHAR Uogonek
ENCODING 370
SWIDTH 578 0
DWIDTH 12 0
BBX 12 14 0 0
BITMAP
015540
1EFFA4
7CFF6C
FCFF6D
FCFF6E
FCFF6E
FCFF6E
FCFF6E
FD6A3E
FF51BE
FFE7FE
BFDBFD
7FE6F8
0BFFD0
ENDCHAR
STARTCHAR uogonek
ENCODING 371
SWIDTH 578 0
DWIDTH 12 0
BBX 12 14 0 0
BITMAP
015540
1EFFA4
7CFF6C
FCFF6D
FCFF6E
FCFF6E
FCFF6E
FCFF6E
FD6A3E
FF51BE
FFE7FE
BFDBFD
7FE6F8
0BFFD0
ENDCHAR
STARTCHAR Wcircumflex
ENCODING 372
SWIDTH 578 0
DWIDTH 12 0
BBX 12 19 0 0
BITMAP
00BE00
01FF40
02D780
07D7D0
07AAD0
0BFFE0
1BFFE4
76D78C
F6D79D
F5C39E
F9C75E
F9966E
F9956E
FC692E
FE7EBE
FFFFFE
BFFFFD
7FFFF8
0BFFD0
ENDCHAR
STARTCHAR wcircumflex
ENCODING 373
SWIDTH 578 0
DWIDTH 12 0
BBX 12 19 0 0
BITMAP
00BE00
01FF40
02D780
07D7D0
07AAD0
0BFFE0
1BFFE4
76D78C
F6D79D
F5C39E
F9C75E
F9966E
F9956E
FC692E
FE7EBE
FFFFFE
BFFFFD
7FFFF8
0BFFD0
ENDCHAR
STARTCHAR Ycircumflex
ENCODING 374
SWIDTH 578 0
DWIDTH 12 0
BBX 12 19 0 0
BITMAP
007E00
00FF80
02D7C0
03DAD0
07ADE0
07FFE0
1FFFF4
7E3E7C
FF2DBD
FF98FE
FFC5FE
FFD3FE
FFE7FE
FFE7FE
FFEBFE
FFFFFE
BFFFFD
7FFFF8
0BFFD0
ENDCHAR
STARTCHAR ycircumflex
ENCODING 375
SWIDTH 578 0
DWIDTH 12 0
BBX 12 19 0 0
BITMAP
007E00
00FF80
02D7C0
03DAD0
07ADE0
07FFE0
1FFFF4
7E3E7C
FF2DBD
FF98FE
FFC5FE
FFD3FE
FFE7FE
FFE7FE
FFEBFE
FFFFFE
BFFFFD
7FFFF8
0BFFD0
ENDCHAR
STARTCHAR Ydieresis
ENCODING 376
SWIDTH 578 0
DWIDTH 12 0
BBX 12 18 0 0
BITMAP
006A40
03FFD0
0BBEF0
0B58F0
07FFE0
1FFFF4
7E3E7C
FF2DBD
FF98FE
FFC5FE
FFD3FE
FFE7FE
FFE7FE
FFEBFE
FFFFFE
BFFFFD
7FFFF8
0BFFD0
ENDCHAR
STARTCHAR Zacute
ENCODING 377
SWIDTH 578 0
DWIDTH 12 0
BBX 12 20 0 0
BITMAP
006A00
00FFC0
01E3D0
02EBC0
03DF40
03FE00
02FE40
1FAAE4
7F54BC
FFF9FD
FFF2FE
FFD7FE
FFCFFE
FF5FFE
FF1ABE
FF55BE
FFFFFE
BFFFFD
7FFFF8
0BFFD0
ENDCHAR
STARTCHAR zacute
ENCODING 378
SWIDTH 578 0
DWIDTH 12 0
BBX 12 20 0 0
BITMAP
006A00
00FFC0
01E3D0
02EBC0
03DF40
03FE00
02FE40
1FAAE4
7F54BC
FFF9FD
FFF2FE
FFD7FE
FFCFFE
FF5FFE
FF1ABE
FF55BE
FFFFFE
BFFFFD
7FFFF8
0BFFD0
ENDCHAR
STARTCHAR Zdotaccent
ENCODING 379
SWIDTH 578 0
DWIDTH 12 0
BBX 12 19 0 0
BITMAP
01AA00
0BFFD0
1FFFF0
2FCBF0
1FFFF0
0BFFD0
1FAAE4
7F54BC
FFF9FD
FFF2FE
FFD7FE
FFCFFE
FF5FFE
FF1ABE
FF55BE
FFFFFE
BFFFFD
7FFFF8
0BFFD0
ENDCHAR
STARTCHAR zdotaccent
ENCODING 380
SWIDTH 578 0
DWIDTH 12 0
BBX 12 19 0 0
BITMAP
01AA00
0BFFD0
1FFFF0
2FCBF0
1FFFF0
0BFFD0
1FAAE4
7F54BC
FFF9FD
FFF2FE
FFD7FE
FFCFFE
FF5FFE
FF1ABE
FF55BE
FFFFFE
BFFFFD
7FFFF8
0BFFD0
ENDCHAR
STARTCHAR Zcaron
ENCODING 381
SWIDTH 578 0
DWIDTH 12 0
BBX 12 19 0 0
BITMAP
019640
07FFD0
0B7AE0
07A7D0
07D7C0
03FFC0
1FFFE4
7F54BC
FFF9FD
FFF2FE
FFD7FE
FFCFFE
FF5FFE
FF1ABE
FF55BE
FFFFFE
BFFFFD
7FFFF8
0BFFD0
ENDCHAR
STARTCHAR zcaron
ENCODING 382
SWIDTH 578 0
DWIDTH 12 0
BBX 12 19 0 0
BITMAP
019640
07FFD0
0B7AE0
07A7D0
07D7C0
03FFC0
1FFFE4
7F54BC
FFF9FD
FFF2FE
FFD7FE
FFCFFE
FF5FFE
FF1ABE
FF55BE
FFFFFE
BFFFFD
7FFFF8
0BFFD0
ENDCHAR
STARTCHAR longs
ENCODING 383
SWIDTH 578 0
DWIDTH 12 0
BBX 12 14 0 0
BITMAP
015540
1FFFE4
7F55FC
FDBE7D
FDFF7E
FDEB7E
FDEB7E
FF69FE
FFEBFE
FFFFFE
FFFFFE
BFFFFD
7FFFF8
0BFFD0
ENDCHAR
STARTCHAR florin
ENCODING 402
SWIDTH 578 0
DWIDTH 12 0
BBX 12 14 0 0
BITMAP
015540
1FFAE4
7FC6FC
FFCFFD
FFCFFE
FF02FE
FFCFFE
FFCFFE
FFCFFE
FFCFFE
FE9FFE
BEBFFD
7FFFF8
0BFFD0
ENDCHAR
STARTCHAR uni01CD
ENCODING 461
SWIDTH 578 0
DWIDTH 12 0
BBX 12 19 0 0
BITMAP
015640
07FFE0
07ADE0
07DAE0
03D7D0
03FFC0
1FFFE4
7E157C
FE7E7D
FDBE7E
FD6A3E
FD553E
FCBF3E
FCFF2E
FDFFBE
FFFFFE
BFFFFD
7FFFF8
0BFFD0
ENDCHAR
STARTCHAR uni01CE
ENCODING 462
SWIDTH 578 0
DWIDTH 12 0
BBX 12 19 0 0
BITMAP
005140
03FFE0
07ADF0
03D9E0
03D7D0
02FFD0
1FFFE4
7E55BC
FFFEBD
FFFEBE
FE55BE
FCA9BE
FCFEBE
FC69BE
FE56BE
FFFFFE
BFFFFD
7FFFF8
0BFFD0
ENDCHAR
STARTCHAR uni01CF
ENCODING 463
SWIDTH 578 0
DWIDTH 12 0
BBX 12 19 0 0
BITMAP
005140
03FFE0
03DDF0
03DDF0
02E6E0
02FFD0
1FFFE4
7E517C
FFE3FD
FFE3FE
FFE3FE
FFE3FE
FFE3FE
FE92BE
FE557E
FFFFFE
BFFFFD
7FFFF8
0BFFD0
ENDCHAR
STARTCHAR uni01D0
ENCODING 464
SWIDTH 578 0
DWIDTH 12 0
BBX 12 19 0 0
BITMAP
005140
03FFE0
07ADF0
03DDE0
02E7E0
02FFD0
1FFFE4
7E517C
FFE3FD
FFE3FE
FFE3FE
FFE3FE
FFE3FE
FE92BE
FE557E
FFFFFE
BFFFFD
7FFFF8
0BFFD0
ENDCHAR
STARTCHAR uni01D1
ENCODING 465
SWIDTH 578 0
DWIDTH 12 0
BBX 12 19 0 0
BITMAP
015540
03FFE0
07ADE0
03DAE0
03D7D0
03FFC0
1FFFE4
7D552C
FDBF6D
FDBF6E
FDBF6E
FDBF6E
FDBF6E
FD6A2E
FF55BE
FFFFFE
BFFFFD
7FFFF8
0BFFD0
ENDCHAR
STARTCHAR uni01D3
ENCODING 467
SWIDTH 578 0
DWIDTH 12 0
BBX 12 19 0 0
BITMAP
005140
03FFE0
07ADF0
03D9E0
02E7E0
02FFD0
1EFFE4
7CFF6C
FCFF6D
FCFF6E
FCFF6E
FCFF6E
FCFF6E
FD6A3E
FF55BE
FFFFFE
BFFFFD
7FFFF8
0BFFD0
ENDCHAR
STARTCHAR uni01D4
ENCODING 468
SWIDTH 578 0
DWIDTH 12 0
BBX 12 19 0 0
BITMAP
005140
03FFE0
07ADF0
03DDE0
02E7E0
02FFD0
1EFFE4
7CFF6C
FCFF6D
FCFF6E
FCFF6E
FCFF6E
FCFF6E
FD6A3E
FF55BE
FFFFFE
BFFFFD
7FFFF8
0BFFD0
ENDCHAR
STARTCHAR uni0200
ENCODING 512
SWIDTH 578 0
DWIDTH 12 0
BBX 12 19 0 0
BITMAP
0BB800
1FFE00
39DF00
2DAB80
0F77C0
0BFFD0
1FFFF4
7E157C
FE7E7D
FDBE7E
FD6A3E
FD553E
FCBF3E
FCFF2E
FDFFBE
FFFFFE
BFFFFD
7FFFF8
0BFFD0
ENDCHAR
STARTCHAR uni0201
ENCODING 513
SWIDTH 578 0
DWIDTH 12 0
BBX 12 19 0 0
BITMAP
0BB800
1FFE00
39DF00
2DAB80
0F77C0
0BFFD0
1FFFF4
7E55BC
FFFEBD
FFFEBE
FE55BE
FCA9BE
FCFEBE
FC69BE
FE56BE
FFFFFE
BFFFFD
7FFFF8
0BFFD0
ENDCHAR
STARTCHAR uni0202
ENCODING 514
SWIDTH 578 0
DWIDTH 12 0
BBX 12 19 0 0
BITMAP
005500
07FFD0
0FFFF0
1F92F4
0F6DF4
0BFFE0
1FEBE4
7E157C
FE7E7D
FDBE7E
FD6A3E
FD553E
FCBF3E
FCFF2E
FDFFBE
FFFFFE
BFFFFD
7FFFF8
0BFFD0
ENDCHAR
STARTCHAR uni0203
ENCODING 515
SWIDTH 578 0
DWIDTH 12 0
BBX 12 19 0 0
BITMAP
005500
07FFD0
0FFFF0
1F92F4
0F6DF4
0BFFE0
1FABE4
7E55BC
FFFEBD
FFFEBE
FE55BE
FCA9BE
FCFEBE
FC69BE
FE56BE
FFFFFE
BFFFFD
7FFFF8
0BFFD0
ENDCHAR
STARTCHAR uni0204
ENCODING 516
SWIDTH 578 0
DWIDTH 12 0
BBX 12 19 0 0
BITMAP
0BB800
1FFE00
39DF00
2DAB80
0F77C0
0BFFD0
1FFFF4
7F15BC
FF3FFD
FF3FFE
FF00BE
FF3FFE
FF3FFE
FF2ABE
FF55BE
FFFFFE
BFFFFD
7FFFF8
0BFFD0
ENDCHAR
STARTCHAR uni0205
ENCODING 517
SWIDTH 578 0
DWIDTH 12 0
BBX 12 19 0 0
BITMAP
0BB800
1FFE00
39DF00
2DAB80
0F77C0
0BFFD0
1FFFF4
7C55BC
FCFE7D
FCA97E
FC55BE
FCFFFE
FCFFFE
FD14FE
FFAAFE
FFFFFE
BFFFFD
7FFFF8
0BFFD0
ENDCHAR
STARTCHAR uni0206
ENCODING 518
SWIDTH 578 0
DWIDTH 12 0
BBX 12 19 0 0
BITMAP
005500
07FFD0
0FFFF0
1F92F4
0F6DF4
0BFFE0
1FAAE4
7F15BC
FF3FFD
FF3FFE
FF00BE
FF3FFE
FF3FFE
FF2ABE
FF55BE
FFFFFE
BFFFFD
7FFFF8
0BFFD0
ENDCHAR
STARTCHAR uni0207
ENCODING 519
SWIDTH 578 0
DWIDTH 12 0
BBX 12 19 0 0
BITMAP
005500
07FFD0
0FFFF0
1F92F4
0F6DF4
0BFFE0
1FABE4
7C55BC
FCFE7D
FCA97E
FC55BE
FCFFFE
FCFFFE
FD14FE
FFAAFE
FFFFFE
BFFFFD
7FFFF8
0BFFD0
ENDCHAR
STARTCHAR uni0208
ENCODING 520
SWIDTH 578 0
DWIDTH 12 0
BBX 12 19 0 0
BITMAP
0BB800
1FFE00
39DF00
2DAB80
0F77C0
0BFFD0
1FFFE4
7E517C
FFE3FD
FFE3FE
FFE3FE
FFE3FE
FFE3FE
FE92BE
FE557E
FFFFFE
BFFFFD
7FFFF8
0BFFD0
ENDCHAR
STARTCHAR uni0209
ENCODING 521
SWIDTH 578 0
DWIDTH 12 0
BBX 12 19 0 0
BITMAP
0BB800
1FFE00
39DF00
2DAB80
0F77C0
0BFFD0
1FFFE4
7E517C
FFE3FD
FFE3FE
FFE3FE
FFE3FE
FFE3FE
FE92BE
FE557E
FFFFFE
BFFFFD
7FFFF8
0BFFD0
ENDCHAR
STARTCHAR uni020A
ENCODING 522
SWIDTH 578 0
DWIDTH 12 0
BBX 12 19 0 0
BITMAP
005500
07FFD0
0FFFF0
1F92F4
0F6DF4
0BFFE0
1FAAA4
7E517C
FFE3FD
FFE3FE
FFE3FE
FFE3FE
FFE3FE
FE92BE
FE557E
FFFFFE
BFFFFD
7FFFF8
0BFFD0
ENDCHAR
STARTCHAR uni020B
ENCODING 523
SWIDTH 578 0
DWIDTH 12 0
BBX 12 19 0 0
BITMAP
005500
07FFD0
0FFFF0
1F92F4
0F6DF4
0BFFE0
1FAAA4
7E517C
FFE3FD
FFE3FE
FFE3FE
FFE3FE
FFE3FE
FE92BE
FE557E
FFFFFE
BFFFFD
7FFFF8
0BFFD0
ENDCHAR
STARTCHAR uni020C
ENCODING 524
SWIDTH 578 0
DWIDTH 12 0
BBX 12 19 0 0
BITMAP
0BB800
1FFE00
39DF00
2DAB80
0F77C0
0BFFD0
1FFFF4
7D552C
FDBF6D
FDBF6E
FDBF6E
FDBF6E
FDBF6E
FD6A2E
FF55BE
FFFFFE
BFFFFD
7FFFF8
0BFFD0
ENDCHAR
STARTCHAR uni020D
ENCODING 525
SWIDTH 578 0
DWIDTH 12 0
BBX 12 19 0 0
BITMAP
0BB800
1FFE00
39DF00
2DAB80
0F77C0
0BFFD0
1FFFF4
7D552C
FDBF6D
FDBF6E
FDBF6E
FDBF6E
FDBF6E
FD6A2E
FF55BE
FFFFFE
BFFFFD
7FFFF8
0BFFD0
ENDCHAR
STARTCHAR uni020E
ENCODING 526
SWIDTH 578 0
DWIDTH 12 0
BBX 12 19 0 0
BITMAP
005500
07FFD0
0FFFF0
1F92F4
0F6DF4
0BFFE0
1FEAE4
7D552C
FDBF6D
FDBF6E
FDBF6E
FDBF6E
FDBF6E
FD6A2E
FF55BE
FFFFFE
BFFFFD
7FFFF8
0BFFD0
ENDCHAR
STARTCHAR uni020F
ENCODING 527
SWIDTH 578 0
DWIDTH 12 0
BBX 12 19 0 0
BITMAP
005500
07FFD0
0FFFF0
1F92F4
0F6DF4
0BFFE0
1FEAE4
7D552C
FDBF6D
FDBF6E
FDBF6E
FDBF6E
FDBF6E
FD6A2E
FF55BE
FFFFFE
BFFFFD
7FFFF8
0BFFD0
ENDCHAR
STARTCHAR uni0210
ENCODING 528
SWIDTH 578 0
DWIDTH 12 0
BBX 12 19 0 0
BITMAP
0BB800
1FFE00
39DF00
2DAB80
0F77C0
0BFFD0
1FFFF4
7D557C
FDBE7D
FDBE7E
FD15FE
FD697E
FDBE7E
FDBE7E
FEBFBE
FFFFFE
BFFFFD
7FFFF8
0BFFD0
ENDCHAR
STARTCHAR uni0211
ENCODING 529
SWIDTH 578 0
DWIDTH 12 0
BBX 12 19 0 0
BITMAP
0BB800
1FFE00
39DF00
2DAB80
0F77C0
0BFFD0
1FFFF4
7D557C
FDBE7D
FDBE7E
FD15FE
FD697E
FDBE7E
FDBE7E
FEBFBE
FFFFFE
BFFFFD
7FFFF8
0BFFD0
ENDCHAR
STARTCHAR uni0212
ENCODING 530
SWIDTH 578 0
DWIDTH 12 0
BBX 12 19 0 0
BITMAP
005500
07FFD0
0FFFF0
1F92F4
0F6DF4
0BFFE0
1FABE4
7D557C
FDBE7D
FDBE7E
FD15FE
FD697E
FDBE7E
FDBE7E
FEBFBE
FFFFFE
BFFFFD
7FFFF8
0BFFD0
ENDCHAR
STARTCHAR uni0213
ENCODING 531
SWIDTH 578 0
DWIDTH 12 0
BBX 12 19 0 0
BITMAP
005500
07FFD0
0FFFF0
1F92F4
0F6DF4
0BFFE0
1FABE4
7D557C
FDBE7D
FDBE7E
FD15FE
FD697E
FDBE7E
FDBE7E
FEBFBE
FFFFFE
BFFFFD
7FFFF8
0BFFD0
ENDCHAR
STARTCHAR uni0214
ENCODING 532
SWIDTH 578 0
DWIDTH 12 0
BBX 12 19 0 0
BITMAP
0BB800
1FFE00
39DF00
2DAB80
0F77C0
0BFFD0
1FFFE4
7CFF6C
FCFF6D
FCFF6E
FCFF6E
FCFF6E
FCFF6E
FD6A3E
FF55BE
FFFFFE
BFFFFD
7FFFF8
0BFFD0
ENDCHAR
STARTCHAR uni0215
ENCODING 533
SWIDTH 578 0
DWIDTH 12 0
BBX 12 19 0 0
BITMAP
0BB800
1FFE00
39DF00
2DAB80
0F77C0
0BFFD0
1FFFE4
7CFF6C
FCFF6D
FCFF6E
FCFF6E
FCFF6E
FCFF6E
FD6A3E
FF55BE
FFFFFE
BFFFFD
7FFFF8
0BFFD0
ENDCHAR
STARTCHAR uni0216
ENCODING 534
SWIDTH 578 0
DWIDTH 12 0
BBX 12 19 0 0
BITMAP
005500
07FFD0
0FFFF0
1F92F4
0F6DF4
0BFFE0
1EFFE4
7CFF6C
FCFF6D
FCFF6E
FCFF6E
FCFF6E
FCFF6E
FD6A3E
FF55BE
FFFFFE
BFFFFD
7FFFF8
0BFFD0
ENDCHAR
STARTCHAR uni0217
ENCODING 535
SWIDTH 578 0
DWIDTH 12 0
BBX 12 19 0 0
BITMAP
005500
07FFD0
0FFFF0
1F92F4
0F6DF4
0BFFE0
1EFFE4
7CFF6C
FCFF6D
FCFF6E
FCFF6E
FCFF6E
FCFF6E
FD6A3E
FF55BE
FFFFFE
BFFFFD
7FFFF8
0BFFD0
ENDCHAR
STARTCHAR uni0218
ENCODING 536
SWIDTH 578 0
DWIDTH 12 0
BBX 12 14 0 0
BITMAP
015540
1FAAA4
7E55BC
FDBFFD
FD7FFE
FE007E
FFFF3E
FFFF3E
FF693E
FF55BE
FFE7FE
BFE3FD
7FFBF8
0BFFD0
ENDCHAR
STARTCHAR uni0219
ENCODING 537
SWIDTH 578 0
DWIDTH 12 0
BBX 12 14 0 0
BITMAP
015540
1FAAA4
7E55BC
FDBFFD
FD7FFE
FE007E
FFFF3E
FFFF3E
FF693E
FF55BE
FFE7FE
BFE3FD
7FFBF8
0BFFD0
ENDCHAR
STARTCHAR uni021A
ENCODING 538
SWIDTH 578 0
DWIDTH 12 0
BBX 12 14 0 0
BITMAP
015540
1EAAA4
7E517C
FFE3FD
FFE3FE
FFE3FE
FFE3FE
FFE3FE
FFE3FE
FFFBFE
FFE7FE
BFE3FD
7FF7F8
0BFFD0
ENDCHAR
STARTCHAR uni021B
ENCODING 539
SWIDTH 578 0
DWIDTH 12 0
BBX 12 14 0 0
BITMAP
015540
1EAAA4
7E517C
FFE3FD
FFE3FE
FFE3FE
FFE3FE
FFE3FE
FFE3FE
FFFBFE
FFE7FE
BFE3FD
7FF7F8
0BFFD0
ENDCHAR
STARTCHAR circumflex
ENCODING 710
SWIDTH 355 0
DWIDTH 7 0
BBX 7 7 0 0
BITMAP
1FD0
2EF0
7DB4
B678
F77C
FFFC
6AA4
ENDCHAR
STARTCHAR caron
ENCODING 711
SWIDTH 355 0
DWIDTH 7 0
BBX 7 7 0 0
BITMAP
1450
BFFC
F77C
F77C
B9B8
7EF4
2AA0
ENDCHAR
STARTCHAR breve
ENCODING 728
SWIDTH 428 0
DWIDTH 9 0
BBX 9 6 0 0
BITMAP
0AA400
7FFE00
FFFF40
F9DF80
BD6F40
3FFE00
ENDCHAR
STARTCHAR dotaccent
ENCODING 729
SWIDTH 428 0
DWIDTH 9 0
BBX 9 6 0 0
BITMAP
0AA400
7FFE00
FFFF40
FE3F80
BFFF40
6AAA00
ENDCHAR
STARTCHAR ring
ENCODING 730
SWIDTH 368 0
DWIDTH 7 0
BBX 8 7 0 0
BITMAP
0100
1FE0
7AB8
F66D
F76D
F97D
7FF8
ENDCHAR
STARTCHAR ogonek
ENCODING 731
SWIDTH 101 0
DWIDTH 2 0
BBX 2 3 0 -3
BITMAP
A0
C0
B0
ENDCHAR
STARTCHAR tilde
ENCODING 732
SWIDTH 428 0
DWIDTH 9 0
BBX 9 7 0 0
BITMAP
015000
2FFD00
7FFF00
FFFF40
F99B80
B65F40
7FFE00
ENDCHAR
STARTCHAR hungarumlaut
ENCODING 733
SWIDTH 419 0
DWIDTH 8 0
BBX 9 7 0 0
BITMAP
07AC00
1FFE00
2DAB40
79DF00
F7BD00
FFF800
6AA000
ENDCHAR
STARTCHAR uni030F
ENCODING 783
SWIDTH 419 0
DWIDTH 8 0
BBX 9 7 0 0
BITMAP
2EE000
7FF800
B77D00
BADE00
3DEF40
1FFF40
06AA00
ENDCHAR
STARTCHAR mu
ENCODING 956
SWIDTH 578 0
DWIDTH 12 0
BBX 12 14 0 0
BITMAP
015540
1EFFA4
7CFF6C
FCFF6D
FCFF6E
FCFF6E
FCFF6E
FCFF6E
FC6A3E
FC55BE
FEFFFE
BFFFFD
7FFFF8
0BFFD0
ENDCHAR
STARTCHAR pi
ENCODING 960
SWIDTH 578 0
DWIDTH 12 0
BBX 12 14 0 0
BITMAP
015540
1FAAE4
7DAA7C
F755DD
EB7DEA
DF69F6
DF28F6
EB7DEA
F6BE9E
FDBE6E
FF96FE
BFFFFD
7FFFF8
0BFFD0
ENDCHAR
STARTCHAR uni1E60
ENCODING 7776
SWIDTH 578 0
DWIDTH 12 0
BBX 12 18 0 0
BITMAP
00AA40
07FFF0
0BFFF8
0FE3F8
0BFFF4
1FFFF4
7E55BC
FDBFFD
FD7FFE
FE007E
FFFF3E
FFFF3E
FF693E
FF55BE
FFFFFE
BFFFFD
7FFFF8
0BFFD0
ENDCHAR
STARTCHAR uni1E8E
ENCODING 7822
SWIDTH 578 0
DWIDTH 12 0
BBX 12 18 0 0
BITMAP
00AA40
07FFE0
0FFFF4
0FE3F8
0FFFF4
1FFFF4
7E3E7C
FF2DBD
FF98FE
FFC5FE
FFD3FE
FFE7FE
FFE7FE
FFEBFE
FFFFFE
BFFFFD
7FFFF8
0BFFD0
ENDCHAR
STARTCHAR uni1E8F
ENCODING 7823
SWIDTH 578 0
DWIDTH 12 0
BBX 12 18 0 0
BITMAP
00AA40
07FFE0
0FFFF4
0FE3F8
0FFFF4
1FFFF4
7E3E7C
FF2DBD
FF98FE
FFC5FE
FFD3FE
FFE7FE
FFE7FE
FFEBFE
FFFFFE
BFFFFD
7FFFF8
0BFFD0
ENDCHAR
STARTCHAR uni1EBC
ENCODING 7868
SWIDTH 578 0
DWIDTH 12 0
BBX 12 20 0 0
BITMAP
001500
02FFD0
07FFF0
0FFFF4
0F99B8
0B65F4
07FFE0
1FAAA4
7F15BC
FF3FFD
FF3FFE
FF00BE
FF3FFE
FF3FFE
FF2ABE
FF55BE
FFFFFE
BFFFFD
7FFFF8
0BFFD0
ENDCHAR
STARTCHAR uni1EF8
ENCODING 7928
SWIDTH 578 0
DWIDTH 12 0
BBX 12 20 0 0
BITMAP
001500
02FFD0
0BFFF0
0FFFF4
0F59B8
0F65F4
07FFE0
1EBFA4
7E3E7C
FF2DBD
FF98FE
FFC5FE
FFD3FE
FFE7FE
FFE7FE
FFEBFE
FFFFFE
BFFFFD
7FFFF8
0BFFD0
ENDCHAR
STARTCHAR uni1EF9
ENCODING 7929
SWIDTH 578 0
DWIDTH 12 0
BBX 12 20 0 0
BITMAP
001500
02FFD0
0BFFF0
0FFFF4
0F59B8
0F65F4
07FFE0
1EBFA4
7E3E7C
FF2DBD
FF98FE
FFC5FE
FFD3FE
FFE7FE
FFE7FE
FFEBFE
FFFFFE
BFFFFD
7FFFF8
0BFFD0
ENDCHAR
STARTCHAR endash
ENCODING 8211
SWIDTH 428 0
DWIDTH 9 0
BBX 9 14 0 0
BITMAP
015000
1FF900
7FFF00
FFFF40
F40F80
FFFF80
FFFF80
FFFF80
FFFF80
FFFF80
FFFF80
BFFF40
7FFE00
0BF400
ENDCHAR
STARTCHAR emdash
ENCODING 8212
SWIDTH 428 0
DWIDTH 9 0
BBX 9 14 0 0
BITMAP
015000
1FF900
7FFF00
FFFF40
000000
FFFF80
FFFF80
FFFF80
FFFF80
FFFF80
FFFF80
BFFF40
7FFE00
0BF400
ENDCHAR
STARTCHAR quoteleft
ENCODING 8216
SWIDTH 428 0
DWIDTH 9 0
BBX 9 14 0 0
BITMAP
015000
1FB900
7E7F00
FE3F40
FFFF80
FFFF80
FFFF80
FFFF80
FFFF80
FFFF80
FFFF80
BFFF40
7FFE00
0BF400
ENDCHAR
STARTCHAR quoteright
ENCODING 8217
SWIDTH 428 0
DWIDTH 9 0
BBX 9 14 0 0
BITMAP
015000
1EB900
7E3F00
FF7F40
FFFF80
FFFF80
FFFF80
FFFF80
FFFF80
FFFF80
FFFF80
BFFF40
7FFE00
0BF400
ENDCHAR
STARTCHAR quotesinglbase
ENCODING 8218
SWIDTH 428 0
DWIDTH 9 0
BBX 9 14 0 0
BITMAP
015000
1FF900
7FFF00
FFFF40
FFFF80
FFFF80
FFFF80
FFFF80
FE7F80
FE3F80
FF7F80
BFFF40
7FFE00
0BF400
ENDCHAR
STARTCHAR quotedblleft
ENCODING 8220
SWIDTH 428 0
DWIDTH 9 0
BBX 9 14 0 0
BITMAP
015000
1EE900
799F00
F84F40
FFFF80
FFFF80
FFFF80
FFFF80
FFFF80
FFFF80
FFFF80
BFFF40
7FFE00
0BF400
ENDCHAR
STARTCHAR quotedblright
ENCODING 8221
SWIDTH 428 0
DWIDTH 9 0
BBX 9 14 0 0
BITMAP
015000
1EA900
7C4F00
FDDF40
FFFF80
FFFF80
FFFF80
FFFF80
FFFF80
FFFF80
FFFF80
BFFF40
7FFE00
0BF400
ENDCHAR
STARTCHAR quotedblbase
ENCODING 8222
SWIDTH 428 0
DWIDTH 9 0
BBX 9 14 0 0
BITMAP
015000
1FF900
7FFF00
FFFF40
FFFF80
FFFF80
FFFF80
FFFF80
FD9F80
FD8F80
FDDF80
BFFF40
7FFE00
0BF400
ENDCHAR
STARTCHAR dagger
ENCODING 8224
SWIDTH 578 0
DWIDTH 12 0
BBX 12 14 0 0
BITMAP
015540
1FFBE4
7FE3FC
FF80FD
FFE3FE
FFE3FE
FFE3FE
FFE3FE
FFE3FE
FFFBFE
FFFFFE
BFFFFD
7FFFF8
0BFFD0
ENDCHAR
STARTCHAR daggerdbl
ENCODING 8225
SWIDTH 578 0
DWIDTH 12 0
BBX 12 14 0 0
BITMAP
015540
1FFBE4
7FE3FC
FF80FD
FFE3FE
FFE3FE
FFE3FE
FF80FE
FFE2FE
FFFBFE
FFFFFE
BFFFFD
7FFFF8
0BFFD0
ENDCHAR
STARTCHAR bullet
ENCODING 8226
SWIDTH 578 0
DWIDTH 12 0
BBX 12 14 0 0
BITMAP
015540
1FFFE4
7F96FC
FD003D
FD003E
FD003E
FD003E
FD003E
FE007E
FFEBFE
FFFFFE
BFFFFD
7FFFF8
0BFFD0
ENDCHAR
STARTCHAR ellipsis
ENCODING 8230
SWIDTH 578 0
DWIDTH 12 0
BBX 12 14 0 0
BITMAP
015540
1FFFE4
7FFFFC
FFFFFD
FFFFFE
FFFFFE
FFFFFE
FFFFFE
F9DABE
FADABE
FFFFFE
BFFFFD
7FFFF8
0BFFD0
ENDCHAR
STARTCHAR perthousand
ENCODING 8240
SWIDTH 640 0
DWIDTH 13 0
BBX 13 14 0 0
BITMAP
01555000
1FFFFD00
51CFFF40
9C9FFF80
C45FFFC0
FB2FFFC0
FF209080
FE5A4940
FDA09080
FFFFFFC0
FFFFFF80
BFFFFF80
7FFFFF00
0BFFF800
ENDCHAR
STARTCHAR guilsinglleft
ENCODING 8249
SWIDTH 578 0
DWIDTH 12 0
BBX 12 14 0 0
BITMAP
015540
1FFFE4
7FFEFC
FFF6FD
FFE7FE
FF9FFE
FF9FFE
FFDBFE
FFF7FE
FFF9FE
FFFFFE
BFFFFD
7FFFF8
0BFFD0
ENDCHAR
STARTCHAR guilsinglright
ENCODING 8250
SWIDTH 578 0
DWIDTH 12 0
BBX 12 14 0 0
BITMAP
015540
1FFFE4
7FAFFC
FFCFFD
FFE7FE
FFF6FE
FFF9FE
FFF3FE
FFDBFE
FF9FFE
FFFFFE
BFFFFD
7FFFF8
0BFFD0
ENDCHAR
STARTCHAR fraction
ENCODING 8260
SWIDTH 428 0
DWIDTH 9 0
BBX 9 14 0 0
BITMAP
015000
1FA900
7F6F00
FF3F40
FF3F80
FE7F80
FE7F80
FDBF80
FDBF80
FDFF80
FFFF80
BFFF40
7FFE00
0BF400
ENDCHAR
STARTCHAR Euro
ENCODING 8364
SWIDTH 578 0
DWIDTH 12 0
BBX 12 14 0 0
BITMAP
015540
1FAAE4
7C55FC
FCFFFD
F00BFE
FCBFFE
F45BFE
FCFFFE
FC69FE
FE55FE
FFFFFE
BFFFFD
7FFFF8
0BFFD0
ENDCHAR
STARTCHAR trademark
ENCODING 8482
SWIDTH 578 0
DWIDTH 12 0
BBX 12 14 0 0
BITMAP
015540
1FFFE4
7FFFFC
FFFFFD
FEAFFE
FD55BE
FE90BE
FEEABE
FFFFFE
FFFFFE
FFFFFE
BFFFFD
7FFFF8
0BFFD0
ENDCHAR
STARTCHAR product
ENCODING 8719
SWIDTH 578 0
DWIDTH 12 0
BBX 12 14 0 0
BITMAP
015540
1FAAE4
7DBE7C
F795DD
EB6DAA
DF6DB6
DF55F6
EB6FEA
F76FDE
FDBE6E
FF96FE
BFFFFD
7FFFF8
0BFFD0
ENDCHAR
STARTCHAR minus
ENCODING 8722
SWIDTH 428 0
DWIDTH 9 0
BBX 9 14 0 0
BITMAP
015000
1FF900
7FFF00
FFFF40
F40F80
FFFF80
FFFF80
FFFF80
FFFF80
FFFF80
FFFF80
BFFF40
7FFE00
0BF400
ENDCHAR
STARTCHAR notequal
ENCODING 8800
SWIDTH 578 0
DWIDTH 12 0
BBX 12 14 0 0
BITMAP
015540
1FFFE4
7FFAFC
FE91BD
FE45BE
FD45BE
FE5ABE
FFBFFE
FFFFFE
FFFFFE
FFFFFE
BFFFFD
7FFFF8
0BFFD0
ENDCHAR
STARTCHAR uni2706
ENCODING 9990
SWIDTH 578 0
DWIDTH 12 0
BBX 12 14 0 0
BITMAP
015540
1FEBE4
7FEAFC
FFE6FD
FE69BE
FD6FFE
FD3FFE
FE2FFE
FF49FE
FFD1BE
FFFEFE
BFFFFD
7FFFF8
0BFFD0
ENDCHAR
STARTCHAR uni2708
ENCODING 9992
SWIDTH 578 0
DWIDTH 12 0
BBX 12 14 0 0
BITMAP
015540
144154
402804
401401
465581
40FF01
402801
401401
401401
401001
400001
403801
502808
055550
ENDCHAR
STARTCHAR uniF6D6
ENCODING 63190
SWIDTH 419 0
DWIDTH 8 0
BBX 9 7 0 0
BITMAP
2EE000
7FF800
B77D00
BADE00
3DEF40
1FFF40
06AA00
ENDCHAR
STARTCHAR uFFFF2
ENCODING 1048562
SWIDTH 578 0
DWIDTH 12 0
BBX 12 14 0 0
BITMAP
015540
140054
401404
401401
402801
40BE01
429681
401401
402801
405501
400001
403801
502808
055550
ENDCHAR
STARTCHAR uFFFF3
ENCODING 1048563
SWIDTH 578 0
DWIDTH 12 0
BBX 12 14 0 0
BITMAP
015540
140054
401804
405A01
40DA41
403D01
402D01
40AB41
405B41
401D01
400401
400001
500008
055550
ENDCHAR
STARTCHAR uFFFF4
ENCODING 1048564
SWIDTH 578 0
DWIDTH 12 0
BBX 12 14 0 0
BITMAP
015540
1FFFE4
7FEBFC
FFAAFD
FDAA7E
FDEB7E
FDFF7E
FDBF7E
FF55FE
FFFFFE
FFFFFE
BFFFFD
7FFFF8
0BFFD0
ENDCHAR
STARTCHAR uFFFF5
ENCODING 1048565
SWIDTH 578 0
DWIDTH 12 0
BBX 12 14 0 0
BITMAP
015540
1FBEE4
7FD7FC
FFEBFD
F9AA7E
FF00FE
FFD7FE
FFEBFE
FFEBFE
FFEFFE
FFFFFE
BFC7FD
7FD7F8
0BFFD0
ENDCHAR
STARTCHAR uFFFF6
ENCODING 1048566
SWIDTH 578 0
DWIDTH 12 0
BBX 12 14 0 0
BITMAP
015540
1FFFE4
7FEBFC
FFEBFD
FFD7FE
FF41FE
FD597E
FFEBFE
FFDBFE
FFAAFE
FFFFFE
BFC7FD
7FD7F8
0BFFD0
ENDCHAR
STARTCHAR uFFFF8
ENCODING 1048568
SWIDTH 578 0
DWIDTH 12 0
BBX 12 14 0 0
BITMAP
015540
1FFFE4
7FD7FC
FF56FD
FF55FE
FE55FE
FDD67E
FC007E
FD00BE
FF01FE
FFEBFE
BFC7FD
7FDBF8
0BFFD0
ENDCHAR
STARTCHAR uFFFF9
ENCODING 1048569
SWIDTH 578 0
DWIDTH 12 0
BBX 12 14 0 0
BITMAP
015540
140054
401404
405501
425581
421481
420081
424081
40AA01
400001
400001
400001
500008
055550
ENDCHAR
STARTCHAR uFFFFB
ENCODING 1048571
SWIDTH 578 0
DWIDTH 12 0
BBX 12 14 0 0
BITMAP
015540
1FEFE4
7FD7FC
FE95FD
FF15FE
FFC7FE
FF42FE
FE58FE
FFD2FE
FFDBFE
FFFFFE
BFFFFD
7FFFF8
0BFFD0
ENDCHAR
STARTCHAR uFFFFC
ENCODING 1048572
SWIDTH 578 0
DWIDTH 12 0
BBX 12 14 0 0
BITMAP
015540
1FFFE4
7D007C
F2AA5D
F9696E
FE56BE
FFBEFE
FFD7FE
FFEBFE
FFFFFE
FFFFFE
BFFFFD
7FFFF8
0BFFD0
ENDCHAR
STARTCHAR uFFFFD
ENCODING 1048573
SWIDTH 578 0
DWIDTH 12 0
BBX 12 14 0 0
BITMAP
015540
1FFFE4
7F46FC
FD00BD
FC007E
FC867E
FD96BE
FF14FE
FF96FE
FF97FE
FFFFFE
BFC7FD
7FDBF8
0BFFD0
ENDCHAR
STARTCHAR uFFFFE
ENCODING 1048574
SWIDTH 578 0
DWIDTH 12 0
BBX 12 14 0 0
BITMAP
015540
1FFFE4
75696C
F7D7DD
F697DE
F567DE
F7D7DE
F1555E
FEBEBE
FFFFFE
FFFFFE
BFFFFD
7FFFF8
0BFFD0
ENDCHAR
STARTCHAR uFFFFF
ENCODING 1048575
SWIDTH 578 0
DWIDTH 12 0
BBX 12 14 0 0
BITMAP
015540
140054
40B904
42FF41
43FF81
437981
426941
40EB01
406901
406801
400001
403801
502408
055550
ENDCHAR
STARTCHAR .notdef
ENCODING -1
SWIDTH 1000 0
DWIDTH 20 0
BBX 1 1 0 0
BITMAP
00
ENDCHAR
STARTCHAR glyph1
ENCODING -1
SWIDTH 0 0
DWIDTH 0 0
BBX 1 1 0 0
BITMAP
00
ENDCHAR
ENDFONT
